<?xml version="1.0" encoding="UTF-8" standalone="no"?>
<svg width="240px" height="25px" viewBox="0 0 240 25" version="1.1" xmlns="http://www.w3.org/2000/svg" xmlns:xlink="http://www.w3.org/1999/xlink">
    <!-- Generator: Sketch 39.1 (31720) - http://www.bohemiancoding.com/sketch -->
    <title>header</title>
    <desc>Created with Sketch.</desc>
    <defs></defs>
    <g id="Labs" stroke="none" stroke-width="1" fill="none" fill-rule="evenodd">
        <g id="full-screen---horizontal" transform="translate(-570.000000, -197.000000)">
            <g id="header" transform="translate(690.000000, 210.500000) rotate(-360.000000) translate(-690.000000, -210.500000) translate(570.000000, 194.000000)">
                <path d="M15.5744056,4.84922882 L13.3059595,4.86634025 L12.9843142,4.86634025 L12.9843142,21.7553159 C12.9843142,23.01016 13.3285277,23.8600189 14.016965,24.3049181 C14.490971,24.6015176 15.4220403,24.8296677 16.8102008,24.9893751 L16.8102008,25.6053864 C16.8102008,25.6966478 16.7989151,25.7879078 16.7763434,25.8791692 L5.56954286,25.8791692 L5.53568546,24.9893751 C5.98711976,24.8296677 6.44136871,24.6870739 6.89844595,24.5615895 C7.35552318,24.4361051 7.76462938,24.2706963 8.12577682,24.0653582 C8.93835856,23.6090513 9.34464334,22.8390449 9.34464334,21.7553159 L9.34464334,4.86634025 L6.87305289,4.86634025 C5.85732571,4.86634025 5.07861322,4.9062665 4.53689206,4.98612022 C3.99517089,5.06597393 3.55785047,5.26275334 3.22491767,5.57646435 C2.89198488,5.89017536 2.58727129,6.25236355 2.31076778,6.66303979 C2.03426427,7.07371602 1.77469344,7.49864547 1.5320475,7.93784089 C1.28940157,8.37703631 1.038295,8.75633575 0.778720278,9.0757506 L0,9.0757506 L0.423217543,3.49742631 C3.30111122,3.61150304 7.12695955,3.66854055 11.9008773,3.66854055 C16.674795,3.66854055 20.0379302,3.60009554 21.9903835,3.46320346 L22.532102,9.09286203 L21.7195243,9.09286203 C21.4599496,8.77344718 21.2144858,8.39414773 20.9831258,7.95495232 C20.7517657,7.5157569 20.5006591,7.09082745 20.2297985,6.68015121 C19.5752188,5.67627597 18.8980775,5.11730837 18.1983543,5.00323164 C17.5550605,4.90056258 16.6804196,4.84922882 15.5744056,4.84922882 L15.5744056,4.84922882 Z M25.4311018,14.414515 C25.2053847,15.1560137 25.0925278,16.0229839 25.0925278,17.0154514 C25.0925278,18.007919 25.2053847,18.9718529 25.4311018,19.9072821 C25.656819,20.8427113 25.9841039,21.6811627 26.4129665,22.4226615 C27.3609786,24.0653664 28.5629044,24.8867066 30.01878,24.8867066 C31.440798,24.8867066 32.5411527,24.350554 33.3198768,23.2782327 C34.0421717,22.2857651 34.4033137,20.9396799 34.4033137,19.2399366 C34.4033137,16.992625 33.9631719,15.1103871 33.082875,13.5931666 C32.1687205,11.9846847 30.9780804,11.1804558 29.5109189,11.1804558 C27.445607,11.1804558 26.0856816,12.2584647 25.4311018,14.414515 L25.4311018,14.414515 Z M21.7067875,18.0763597 C21.7067875,15.7035637 22.4967856,13.7528809 24.0768057,12.2242527 C25.6003965,10.7640705 27.4456065,10.0339904 29.6124912,10.0339904 C31.926092,10.0339904 33.8390161,10.752663 35.351321,12.1900298 C36.9426269,13.6958427 37.738268,15.6522293 37.738268,18.0592483 C37.738268,20.4662673 36.9482698,22.445469 35.3682497,23.9969125 C33.8672307,25.47991 32.010735,26.2213976 29.7987069,26.2213976 C27.5866788,26.2213976 25.7019688,25.4685025 24.1445205,23.9626897 C22.519357,22.3998384 21.7067875,20.4377481 21.7067875,18.0763597 L21.7067875,18.0763597 Z M58.3446898,25.023598 L58.3108324,25.8791692 L49.8464816,25.8791692 C49.8239098,25.7536848 49.8126242,25.6053872 49.8126242,25.4342721 L49.8126242,25.023598 C49.9480544,24.9323366 50.1370897,24.8610397 50.3797357,24.8097052 C50.6223816,24.7583706 50.8678453,24.6984812 51.1161342,24.6300352 C51.7255705,24.4589201 52.0867125,24.2079551 52.1995711,23.8771325 C52.44786,23.3866026 52.5720025,22.7477825 52.5720025,21.960653 L52.5720025,16.0058774 C52.5720025,14.6711796 52.4224672,13.7500238 52.1233919,13.2423824 C51.8243167,12.7347409 51.4942103,12.3811084 51.1330629,12.1814741 C50.7719154,11.9818398 50.3430593,11.8820242 49.8464816,11.8820242 C49.3499038,11.8820242 48.909762,11.9476173 48.5260428,12.0788055 C48.1423237,12.2099938 47.7811816,12.3839582 47.4426059,12.600704 C46.8895989,12.9543419 46.2745289,13.5133095 45.5973774,14.2776236 L45.5973774,21.8579845 C45.5973774,23.1242362 45.72152,23.8600201 45.9698089,24.0653582 C46.2180977,24.2706963 46.4663829,24.4218457 46.7146717,24.5188109 C46.9629606,24.6157762 47.21971,24.6984806 47.4849277,24.7669266 C47.7501453,24.8353726 47.9786805,24.9209289 48.1705401,25.023598 L48.1366827,25.8791692 L39.7908327,25.8791692 C39.7795469,25.8221308 39.773904,25.7650933 39.773904,25.7080549 L39.773904,25.023598 C39.9206202,24.9323366 40.1237626,24.8553359 40.3833373,24.7925937 C40.642912,24.7298515 40.9024829,24.6528509 41.1620576,24.5615895 C41.7940656,24.333436 42.1552076,23.9969147 42.2454945,23.5520155 C42.3696389,23.0843009 42.4317102,22.5937783 42.4317102,22.080433 L42.4317102,13.490498 C42.0931345,12.8744837 41.1620652,12.3668499 39.6384744,11.9675813 L39.6892605,11.3857929 L44.4123683,10.222216 L45.4450191,10.222216 L45.5973774,12.6862611 C46.8049642,11.3515633 48.0633184,10.5245194 49.3724779,10.2051046 C49.8690556,10.0910279 50.4164115,10.0339904 51.014562,10.0339904 C53.1814466,10.0339904 54.6485861,10.9522943 55.4160244,12.7889297 C56.239892,11.8763158 56.9226762,11.2603107 57.4643973,10.9408958 C58.4462669,10.3591045 59.3942647,10.0682132 60.3084192,10.0682132 C61.2225737,10.0682132 61.9758934,10.1509176 62.5684009,10.3163289 C63.1609084,10.4817401 63.6772287,10.735557 64.1173771,11.0777872 C65.0428174,11.785063 65.5732448,12.8630719 65.7086751,14.3118464 C65.7989619,15.338537 65.8441047,16.4165459 65.8441047,17.5459056 L65.8441047,22.0290987 C65.8441047,22.6222977 65.8751403,23.0814497 65.9372125,23.4065684 C65.9992847,23.7316871 66.1206059,23.9712446 66.3011796,24.1252482 C66.4817533,24.2792518 66.6877171,24.4047343 66.9190772,24.5016995 C67.1504373,24.5986647 67.3874368,24.684221 67.6300827,24.7583709 C67.8727286,24.8325208 68.0843353,24.9209289 68.264909,25.023598 L68.2310516,25.8791692 L60.0883461,25.8791692 C60.0657744,25.7536848 60.0544887,25.6053872 60.0544887,25.4342721 L60.0544887,25.023598 C60.2350624,24.9209289 60.4551333,24.8353726 60.7147081,24.7669266 C60.9742828,24.6984806 61.2282108,24.6129243 61.4764996,24.5102552 C62.0972218,24.2821018 62.452721,23.9512842 62.5430078,23.5177926 C62.6332947,23.0272627 62.6784375,22.5310363 62.6784375,22.0290987 L62.6784375,15.2358633 C62.6784375,14.163542 62.4132238,13.3336463 61.8827885,12.7461511 C61.3523532,12.1586559 60.5736407,11.8649127 59.5466276,11.8649127 C58.2261823,11.8649127 56.9226853,12.5778816 55.6360975,14.0038408 C55.7038127,14.7111165 55.7376698,15.9773492 55.7376698,17.8025769 L55.7376698,21.9435416 C55.7376698,22.6051866 55.765884,23.0900055 55.8223133,23.3980127 C55.8787425,23.7060198 56.0057065,23.9398736 56.203209,24.099581 C56.4007116,24.2592885 56.6264253,24.3904747 56.8803571,24.4931438 C57.1342889,24.5958129 57.3938597,24.684221 57.6590774,24.7583709 C57.924295,24.8325208 58.1528302,24.9209289 58.3446898,25.023598 L58.3446898,25.023598 Z M73.652428,14.414515 C73.4267109,15.1560137 73.313854,16.0229839 73.313854,17.0154514 C73.313854,18.007919 73.4267109,18.9718529 73.652428,19.9072821 C73.8781452,20.8427113 74.2054301,21.6811627 74.6342927,22.4226615 C75.5823048,24.0653664 76.7842306,24.8867066 78.2401062,24.8867066 C79.6621242,24.8867066 80.7624788,24.350554 81.541203,23.2782327 C82.2634979,22.2857651 82.6246399,20.9396799 82.6246399,19.2399366 C82.6246399,16.992625 82.1844981,15.1103871 81.3042012,13.5931666 C80.3900467,11.9846847 79.1994066,11.1804558 77.7322451,11.1804558 C75.6669332,11.1804558 74.3070078,12.2584647 73.652428,14.414515 L73.652428,14.414515 Z M69.9281136,18.0763597 C69.9281136,15.7035637 70.7181118,13.7528809 72.2981319,12.2242527 C73.8217227,10.7640705 75.6669327,10.0339904 77.8338173,10.0339904 C80.1474181,10.0339904 82.0603423,10.752663 83.5726472,12.1900298 C85.1639531,13.6958427 85.9595942,15.6522293 85.9595942,18.0592483 C85.9595942,20.4662673 85.169596,22.445469 83.5895759,23.9969125 C82.0885569,25.47991 80.2320611,26.2213976 78.0200331,26.2213976 C75.808005,26.2213976 73.923295,25.4685025 72.3658467,23.9626897 C70.7406832,22.3998384 69.9281136,20.4377481 69.9281136,18.0763597 L69.9281136,18.0763597 Z M90.5176068,13.5076095 C90.2016028,12.9714488 89.3156762,12.5037412 87.8598006,12.1044727 L87.893658,11.5055728 L92.3966927,10.2051046 L93.3616287,10.2051046 L93.6324879,13.3536067 C94.5692141,11.631048 95.6018546,10.6043728 96.7304403,10.2735503 C97.1141595,10.1708812 97.5006943,10.1195475 97.8900564,10.1195475 C98.2794185,10.1195475 98.6208105,10.176585 98.9142428,10.2906617 C99.2076751,10.4047385 99.4616031,10.553036 99.6760344,10.7355587 C100.127469,11.1234196 100.353182,11.5454972 100.353182,12.0018041 C100.353182,12.355442 100.262897,12.6976671 100.082323,13.0284896 C99.7437475,13.7015423 99.3684984,14.0380636 98.9565646,14.0380636 C98.5446308,14.0380636 98.2370958,13.9468036 98.0339503,13.7642808 C97.8308049,13.5817581 97.6558767,13.3821268 97.5091606,13.165381 C97.3624444,12.9486352 97.2129091,12.7490039 97.06055,12.5664811 C96.9081909,12.3839584 96.6852986,12.2926984 96.3918663,12.2926984 C96.098434,12.2926984 95.824756,12.3754027 95.5708242,12.540814 C95.3168925,12.7062253 95.0827144,12.9201159 94.8682831,13.1824924 C94.6538518,13.4448689 94.4507094,13.7414639 94.2588499,14.0722865 C94.0669903,14.403109 93.8751336,14.7282228 93.683274,15.0476376 L93.683274,21.4130874 C93.683274,22.4740011 93.7312382,23.1869699 93.827168,23.5520155 C93.9230978,23.917061 94.0867402,24.1708779 94.3181003,24.3134739 C94.5494604,24.4560698 94.8203169,24.564441 95.130678,24.6385909 C95.4410391,24.7127408 95.7655026,24.7726302 96.1040784,24.8182609 C96.4426541,24.8638916 96.7417248,24.9323366 97.0012995,25.023598 L96.9843708,25.5540521 L96.9843708,25.8791692 L87.9105867,25.8791692 C87.8993009,25.8335385 87.893658,25.7650935 87.893658,25.6738321 L87.893658,25.0749322 C87.893658,25.0178939 87.8993009,24.9779676 87.9105867,24.9551523 C88.2943059,24.8410755 88.6469836,24.7498155 88.9686306,24.6813695 C89.2902775,24.6129234 89.5639555,24.4988484 89.7896726,24.339141 C90.2749645,24.0083185 90.5176068,23.2953496 90.5176068,22.200213 L90.5176068,13.5076095 Z M103.878544,13.5076095 C103.56254,12.9714488 102.676614,12.5037412 101.220738,12.1044727 L101.254596,11.5055728 L105.75763,10.2051046 L106.722566,10.2051046 L106.993425,13.3536067 C107.930152,11.631048 108.962792,10.6043728 110.091378,10.2735503 C110.475097,10.1708812 110.861632,10.1195475 111.250994,10.1195475 C111.640356,10.1195475 111.981748,10.176585 112.27518,10.2906617 C112.568613,10.4047385 112.822541,10.553036 113.036972,10.7355587 C113.488406,11.1234196 113.71412,11.5454972 113.71412,12.0018041 C113.71412,12.355442 113.623834,12.6976671 113.443261,13.0284896 C113.104685,13.7015423 112.729436,14.0380636 112.317502,14.0380636 C111.905568,14.0380636 111.598033,13.9468036 111.394888,13.7642808 C111.191742,13.5817581 111.016814,13.3821268 110.870098,13.165381 C110.723382,12.9486352 110.573847,12.7490039 110.421488,12.5664811 C110.269128,12.3839584 110.046236,12.2926984 109.752804,12.2926984 C109.459371,12.2926984 109.185694,12.3754027 108.931762,12.540814 C108.67783,12.7062253 108.443652,12.9201159 108.229221,13.1824924 C108.014789,13.4448689 107.811647,13.7414639 107.619787,14.0722865 C107.427928,14.403109 107.236071,14.7282228 107.044212,15.0476376 L107.044212,21.4130874 C107.044212,22.4740011 107.092176,23.1869699 107.188105,23.5520155 C107.284035,23.917061 107.447678,24.1708779 107.679038,24.3134739 C107.910398,24.4560698 108.181254,24.564441 108.491616,24.6385909 C108.801977,24.7127408 109.12644,24.7726302 109.465016,24.8182609 C109.803592,24.8638916 110.102662,24.9323366 110.362237,25.023598 L110.345308,25.5540521 L110.345308,25.8791692 L101.271524,25.8791692 C101.260238,25.8335385 101.254596,25.7650935 101.254596,25.6738321 L101.254596,25.0749322 C101.254596,25.0178939 101.260238,24.9779676 101.271524,24.9551523 C101.655243,24.8410755 102.007921,24.7498155 102.329568,24.6813695 C102.651215,24.6129234 102.924893,24.4988484 103.15061,24.339141 C103.635902,24.0083185 103.878544,23.2953496 103.878544,22.200213 L103.878544,13.5076095 Z M118.729208,14.414515 C118.50349,15.1560137 118.390634,16.0229839 118.390634,17.0154514 C118.390634,18.007919 118.50349,18.9718529 118.729208,19.9072821 C118.954925,20.8427113 119.28221,21.6811627 119.711072,22.4226615 C120.659084,24.0653664 121.86101,24.8867066 123.316886,24.8867066 C124.738904,24.8867066 125.839258,24.350554 126.617983,23.2782327 C127.340277,22.2857651 127.701419,20.9396799 127.701419,19.2399366 C127.701419,16.992625 127.261278,15.1103871 126.380981,13.5931666 C125.466826,11.9846847 124.276186,11.1804558 122.809025,11.1804558 C120.743713,11.1804558 119.383787,12.2584647 118.729208,14.414515 L118.729208,14.414515 Z M115.004893,18.0763597 C115.004893,15.7035637 115.794891,13.7528809 117.374911,12.2242527 C118.898502,10.7640705 120.743712,10.0339904 122.910597,10.0339904 C125.224198,10.0339904 127.137122,10.752663 128.649427,12.1900298 C130.240733,13.6958427 131.036374,15.6522293 131.036374,18.0592483 C131.036374,20.4662673 130.246376,22.445469 128.666355,23.9969125 C127.165336,25.47991 125.308841,26.2213976 123.096813,26.2213976 C120.884785,26.2213976 119.000075,25.4685025 117.442626,23.9626897 C115.817463,22.3998384 115.004893,20.4377481 115.004893,18.0763597 L115.004893,18.0763597 Z M137.202613,12.8744868 C137.202613,13.2053093 137.23647,13.4391631 137.304185,13.5760552 L140.435995,21.7210931 L143.533947,14.1065093 C143.003512,12.3269123 142.055514,11.3972009 140.689926,11.3173472 L140.723783,10.4959988 L148.206269,10.4959988 C148.228841,10.7925983 148.240127,11.0663784 148.240127,11.3173472 C148.025695,11.4200162 147.805624,11.5055725 147.579907,11.5740185 C147.35419,11.6424646 147.145405,11.7223171 146.953545,11.8135785 C146.513397,12.0189166 146.293326,12.3269191 146.293326,12.7375954 C146.293326,13.0227872 146.394897,13.4220498 146.598042,13.9353951 L149.357421,21.5842017 L151.998298,14.3802921 C152.21273,13.8099084 152.319944,13.3507565 152.319944,13.0028225 C152.319944,12.6548884 152.274801,12.3953678 152.184514,12.2242527 C152.094227,12.0531376 151.96162,11.9219513 151.78669,11.8306899 C151.611759,11.7394285 151.397331,11.6652797 151.143399,11.6082414 C150.889467,11.551203 150.598861,11.4713505 150.271571,11.3686814 C150.248999,11.2546047 150.237713,11.1177147 150.237713,10.9580073 C150.237713,10.8097075 150.248999,10.6557062 150.271571,10.4959988 L156.213545,10.4959988 L156.213545,11.4029043 C155.434821,11.5055734 154.684323,12.0189109 153.962028,12.9429325 C153.758882,13.1939013 153.617811,13.4334588 153.53881,13.6616123 L148.968061,26.1187291 C148.843916,26.1871751 148.674631,26.2213976 148.4602,26.2213976 C148.245768,26.2213976 148.07084,26.1871751 147.93541,26.1187291 L144.092595,15.6807603 L140.012777,26.1187291 C139.877347,26.1871751 139.693955,26.2213976 139.462595,26.2213976 C139.231235,26.2213976 139.059128,26.1871751 138.946269,26.1187291 L134.223161,13.9182836 C133.907157,13.1197465 133.641944,12.5835939 133.427513,12.3098098 C133.032508,11.8078722 132.519009,11.4827583 131.887001,11.3344586 L131.920858,10.4959988 L138.895483,10.4959988 C138.906769,10.6442986 138.912412,10.7868923 138.912412,10.9237844 L138.912412,11.3173472 C137.77254,11.6823927 137.202613,12.2014341 137.202613,12.8744868 L137.202613,12.8744868 Z" id="Tomorrow" fill="#000000"></path>
                <path d="M182.878026,23.4310451 L191.3359,23.4310451 L191.3359,27.7056277 L177.584024,27.7056277 L177.584024,4.63871367 L182.878026,4.63871367 L182.878026,23.4310451 Z M204.907282,27.7056277 C204.44784,27.7056277 204.100653,27.6423012 203.865711,27.5156463 C203.630769,27.3889913 203.434986,27.1251308 203.278358,26.7240569 L202.933778,25.821645 C202.526545,26.1699461 202.134981,26.4760242 201.759074,26.7398887 C201.383166,27.0037531 200.994212,27.2280345 200.5922,27.4127396 C200.190188,27.5974447 199.762078,27.7346522 199.307857,27.8243661 C198.853635,27.91408 198.349822,27.9589363 197.796403,27.9589363 C197.05503,27.9589363 196.38154,27.8613079 195.775911,27.6660482 C195.170283,27.4707886 194.656028,27.1831806 194.233132,26.8032158 C193.810236,26.423251 193.483933,25.9509408 193.254212,25.3862709 C193.024491,24.821601 192.909632,24.1698656 192.909632,23.4310451 C192.909632,22.8505434 193.055816,22.2542187 193.348188,21.6420532 C193.64056,21.0298877 194.146984,20.4731421 194.867473,19.9717996 C195.587962,19.4704572 196.559041,19.050919 197.78074,18.7131725 C199.002439,18.3754261 200.542592,18.1854465 202.401246,18.1432282 L202.401246,17.4466296 C202.401246,16.486163 202.205463,15.7922099 201.813893,15.3647495 C201.422323,14.9372891 200.866302,14.7235622 200.145813,14.7235622 C199.57151,14.7235622 199.101632,14.7868887 198.736167,14.9135436 C198.370701,15.0401985 198.044398,15.1826832 197.757246,15.3410019 C197.470095,15.4993205 197.190779,15.6418052 196.91929,15.7684601 C196.647802,15.895115 196.324108,15.9584416 195.948201,15.9584416 C195.614061,15.9584416 195.329524,15.8766448 195.094582,15.7130489 C194.85964,15.5494529 194.6743,15.3462803 194.538555,15.103525 L193.661443,13.5678417 C194.642979,12.6918117 195.731527,12.0400763 196.927122,11.612616 C198.122716,11.1851556 199.404437,10.9714286 200.772322,10.9714286 C201.753858,10.9714286 202.638793,11.1323835 203.427154,11.4542981 C204.215516,11.7762127 204.883785,12.2247755 205.431984,12.8 C205.980182,13.3752245 206.400461,14.0586231 206.692833,14.8502165 C206.985206,15.6418098 207.13139,16.5072722 207.13139,17.4466296 L207.13139,27.7056277 L204.907282,27.7056277 Z M199.331351,24.7134199 C199.957863,24.7134199 200.506053,24.6025985 200.975937,24.3809524 C201.445821,24.1593063 201.920919,23.800456 202.401246,23.3043908 L202.401246,21.0246135 C201.430151,21.0668318 200.63136,21.1512671 200.004848,21.2779221 C199.378336,21.404577 198.882354,21.5628933 198.516889,21.7528757 C198.151423,21.9428581 197.898212,22.1592237 197.757246,22.401979 C197.616281,22.6447343 197.545799,22.9085947 197.545799,23.1935683 C197.545799,23.7529609 197.697204,24.1461131 198.000019,24.3730365 C198.302833,24.5999599 198.746606,24.7134199 199.331351,24.7134199 L199.331351,24.7134199 Z M210.428021,27.7056277 L210.428021,4.00544218 L215.283467,4.00544218 L215.283467,13.0295609 C215.889096,12.42795 216.575639,11.9450853 217.343116,11.5809524 C218.110594,11.2168195 219.011192,11.0347557 220.044937,11.0347557 C220.890729,11.0347557 221.673857,11.2194581 222.394346,11.5888683 C223.114836,11.9582785 223.736118,12.4991925 224.258211,13.2116265 C224.780305,13.9240605 225.190142,14.7974387 225.487736,15.8317873 C225.785329,16.8661359 225.934123,18.0429536 225.934123,19.3622758 C225.934123,20.5971614 225.764445,21.7370387 225.425085,22.7819419 C225.085724,23.8268451 224.610626,24.7345251 223.999776,25.5050093 C223.388927,26.2754934 222.658007,26.8770953 221.806994,27.309833 C220.955982,27.7425707 220.013617,27.9589363 218.979872,27.9589363 C218.499545,27.9589363 218.068825,27.9114414 217.687696,27.8164502 C217.306568,27.721459 216.956771,27.5868902 216.638293,27.4127396 C216.319816,27.2385891 216.027448,27.0301393 215.761181,26.787384 C215.494913,26.5446288 215.23648,26.2807683 214.985876,25.9957947 L214.813586,26.8190476 C214.740492,27.1567941 214.607361,27.3889913 214.414186,27.5156463 C214.221011,27.6423012 213.9678,27.7056277 213.654544,27.7056277 L210.428021,27.7056277 Z M218.353362,14.7235622 C217.998339,14.7235622 217.677256,14.757864 217.390105,14.8264688 C217.102953,14.8950735 216.836689,14.9927019 216.591305,15.1193568 C216.345921,15.2460118 216.118814,15.4069667 215.909977,15.6022263 C215.701139,15.797486 215.492305,16.0217674 215.283467,16.2750773 L215.283467,23.2410637 C215.648933,23.6526922 216.045718,23.9403002 216.473835,24.1038961 C216.901952,24.2674921 217.350945,24.3492888 217.82083,24.3492888 C218.26983,24.3492888 218.682278,24.2595762 219.058185,24.0801484 C219.434093,23.9007206 219.760396,23.6131127 220.037106,23.217316 C220.313815,22.8215194 220.530481,22.3069914 220.687109,21.6737168 C220.843737,21.0404421 220.92205,20.2699695 220.92205,19.3622758 C220.92205,18.4968005 220.8594,17.7685455 220.734097,17.1774892 C220.608795,16.5864328 220.433896,16.1088454 220.209396,15.7447124 C219.984896,15.3805795 219.716021,15.1193576 219.402765,14.961039 C219.089509,14.8027203 218.739712,14.7235622 218.353362,14.7235622 L218.353362,14.7235622 Z M238.377789,14.88188 C238.252486,15.082417 238.119354,15.2249017 237.978389,15.3093383 C237.837424,15.3937749 237.657304,15.4359926 237.438025,15.4359926 C237.208304,15.4359926 236.978586,15.3858591 236.748865,15.2855906 C236.519144,15.1853221 236.271153,15.0771393 236.004885,14.961039 C235.738618,14.8449386 235.438418,14.7367558 235.104278,14.6364873 C234.770138,14.5362188 234.389016,14.4860853 233.960899,14.4860853 C233.344829,14.4860853 232.872341,14.6048226 232.543422,14.8423006 C232.214503,15.0797786 232.050046,15.4096042 232.050046,15.8317873 C232.050046,16.13787 232.157074,16.3911761 232.371132,16.591713 C232.58519,16.79225 232.869727,16.9690365 233.224751,17.1220779 C233.579774,17.2751193 233.98178,17.4202426 234.430781,17.5574521 C234.879781,17.6946616 235.339217,17.8477007 235.809101,18.0165739 C236.278985,18.1854471 236.738421,18.3833425 237.187421,18.6102659 C237.636422,18.8371893 238.038428,19.1168815 238.393451,19.4493506 C238.748475,19.7818198 239.033012,20.1855264 239.24707,20.6604824 C239.461129,21.1354384 239.568156,21.705377 239.568156,22.3703154 C239.568156,23.1830179 239.421972,23.9323816 239.1296,24.6184292 C238.837227,25.3044767 238.401286,25.8955242 237.821762,26.3915894 C237.242238,26.8876545 236.52698,27.2728908 235.675968,27.5473098 C234.824955,27.8217289 233.846045,27.9589363 232.739206,27.9589363 C232.185787,27.9589363 231.632376,27.9061642 231.078957,27.8006184 C230.525538,27.6950727 229.9904,27.552588 229.473527,27.3731602 C228.956655,27.1937324 228.478946,26.9800054 228.040387,26.7319728 C227.601829,26.4839402 227.225927,26.2174411 226.912671,25.9324675 L228.040387,24.1276438 C228.176132,23.9165522 228.337978,23.7503201 228.525932,23.6289425 C228.713886,23.5075648 228.959266,23.4468769 229.26208,23.4468769 C229.544011,23.4468769 229.797222,23.5102034 230.021723,23.6368584 C230.246223,23.7635133 230.488993,23.9007208 230.75004,24.0484848 C231.011086,24.1962489 231.316507,24.3334564 231.666309,24.4601113 C232.016112,24.5867662 232.457274,24.6500928 232.98981,24.6500928 C233.365717,24.6500928 233.68419,24.6105137 233.945236,24.5313544 C234.206283,24.452195 234.415117,24.3440122 234.571746,24.2068027 C234.728374,24.0695932 234.843232,23.9165541 234.916326,23.7476809 C234.989419,23.5788076 235.025965,23.4046597 235.025965,23.2252319 C235.025965,22.89804 234.916327,22.6289023 234.697047,22.4178108 C234.477768,22.2067192 234.190621,22.0246555 233.835597,21.8716141 C233.480574,21.7185727 233.075957,21.5760881 232.621736,21.4441558 C232.167514,21.3122236 231.705468,21.1618231 231.235584,20.9929499 C230.7657,20.8240767 230.303654,20.6209041 229.849433,20.3834261 C229.395211,20.1459481 228.990595,19.8451472 228.635571,19.4810142 C228.280548,19.1168813 227.9934,18.6709571 227.774121,18.1432282 C227.554842,17.6154993 227.445204,16.976957 227.445204,16.2275819 C227.445204,15.5309798 227.578336,14.86869 227.844603,14.2406926 C228.110871,13.6126953 228.510267,13.0612269 229.042802,12.5862709 C229.575338,12.1113149 230.243607,11.7339944 231.047631,11.4542981 C231.851656,11.1746018 232.79141,11.0347557 233.866923,11.0347557 C234.451668,11.0347557 235.018131,11.0875278 235.566329,11.1930736 C236.114527,11.2986194 236.628782,11.4463812 237.109108,11.6363636 C237.589434,11.826346 238.027986,12.0506274 238.424777,12.3092146 C238.821568,12.5678017 239.171366,12.8501325 239.47418,13.1562152 L238.377789,14.88188 Z" id="Labs" fill="#4A4A4A" opacity="0.190531716"></path>
            </g>
        </g>
    </g>
</svg>