<?xml version="1.0" encoding="UTF-8" standalone="no"?>
<svg width="19px" height="14px" viewBox="0 0 19 14" version="1.1" xmlns="http://www.w3.org/2000/svg" xmlns:xlink="http://www.w3.org/1999/xlink">
    <!-- Generator: Sketch 39.1 (31720) - http://www.bohemiancoding.com/sketch -->
    <title>”</title>
    <desc>Created with Sketch.</desc>
    <defs></defs>
    <g id="Page-1" stroke="none" stroke-width="1" fill="none" fill-rule="evenodd">
        <g id="Splash-page---white-frame-Copy-3" transform="translate(-2534.000000, -1272.000000)" fill="#FFFFFF">
            <g id="browser-window-copy-2" transform="translate(1457.000000, 614.000000)">
                <path d="M1081.92188,668.195312 C1082.89063,667.054682 1083.42187,665.828132 1083.51562,664.515625 C1082.57812,665.45313 1081.57032,665.921875 1080.49219,665.921875 C1079.60156,665.921875 1078.91406,665.699221 1078.42969,665.253906 C1077.94531,664.808592 1077.70312,664.164067 1077.70312,663.320312 C1077.70312,662.460933 1077.91797,661.664066 1078.34766,660.929688 C1078.77735,660.195309 1079.36328,659.609377 1080.10547,659.171875 C1080.84766,658.734373 1081.64843,658.515625 1082.50781,658.515625 C1084.6172,658.515625 1085.67188,659.671863 1085.67188,661.984375 C1085.67188,663.312507 1085.38282,664.605462 1084.80469,665.863281 C1084.22656,667.1211 1083.39844,668.257807 1082.32031,669.273438 C1081.24218,670.289068 1079.97657,671.124997 1078.52344,671.78125 L1078.26562,671.007812 C1079.73438,670.273434 1080.95312,669.335943 1081.92188,668.195312 L1081.92188,668.195312 Z M1091.35547,668.195312 C1092.30079,667.054682 1092.82031,665.828132 1092.91406,664.515625 C1092.02343,665.45313 1091.03126,665.921875 1089.9375,665.921875 C1089.03125,665.921875 1088.33985,665.699221 1087.86328,665.253906 C1087.38672,664.808592 1087.14844,664.164067 1087.14844,663.320312 C1087.14844,662.460933 1087.36328,661.664066 1087.79297,660.929688 C1088.22266,660.195309 1088.80859,659.609377 1089.55078,659.171875 C1090.29297,658.734373 1091.09375,658.515625 1091.95312,658.515625 C1094.06251,658.515625 1095.11719,659.671863 1095.11719,661.984375 C1095.11719,663.328132 1094.82813,664.624994 1094.25,665.875 C1093.67187,667.125006 1092.84376,668.257807 1091.76562,669.273438 C1090.68749,670.289068 1089.42188,671.124997 1087.96875,671.78125 L1087.73438,671.007812 C1089.20313,670.273434 1090.41015,669.335943 1091.35547,668.195312 L1091.35547,668.195312 Z" id="”"></path>
            </g>
        </g>
    </g>
</svg>