<?xml version="1.0" encoding="UTF-8" standalone="no"?>
<svg width="198px" height="50px" viewBox="0 0 198 50" version="1.1" xmlns="http://www.w3.org/2000/svg" xmlns:xlink="http://www.w3.org/1999/xlink">
    <!-- Generator: Sketch 39.1 (31720) - http://www.bohemiancoding.com/sketch -->
    <title>Artboard 3</title>
    <desc>Created with Sketch.</desc>
    <defs></defs>
    <g id="Page-1" stroke="none" stroke-width="1" fill="none" fill-rule="evenodd">
        <g id="Artboard-3" fill="#FFFFFF">
            <path d="M33.171875,7.42382812 L30.8164062,7.44140625 L30.4824219,7.44140625 L30.4824219,24.7910156 C30.4824219,26.0800846 30.8398402,26.9531227 31.5546875,27.4101562 C32.0468775,27.7148453 33.0136647,27.9492179 34.4550781,28.1132812 L34.4550781,28.7460938 C34.4550781,28.8398442 34.4433595,28.9335933 34.4199219,29.0273438 L22.7832031,29.0273438 L22.7480469,28.1132812 C23.2167992,27.9492179 23.6884742,27.802735 24.1630859,27.6738281 C24.6376977,27.5449212 25.0624981,27.3750011 25.4375,27.1640625 C26.2812542,26.6953102 26.703125,25.9043024 26.703125,24.7910156 L26.703125,7.44140625 L24.1367188,7.44140625 C23.082026,7.44140625 22.2734403,7.48242146 21.7109375,7.56445312 C21.1484347,7.64648479 20.6943377,7.8486312 20.3486328,8.17089844 C20.002928,8.49316567 19.6865249,8.86523227 19.3994141,9.28710938 C19.1123033,9.70898648 18.8427747,10.1455056 18.5908203,10.5966797 C18.3388659,11.0478538 18.0781263,11.4374984 17.8085938,11.765625 L17,11.765625 L17.4394531,6.03515625 C20.4277493,6.15234434 24.4003658,6.2109375 29.3574219,6.2109375 C34.3144779,6.2109375 37.8066305,6.1406257 39.8339844,6 L40.3964844,11.7832031 L39.5527344,11.7832031 C39.2832018,11.4550765 39.0283215,11.0654319 38.7880859,10.6142578 C38.5478504,10.1630837 38.2871108,9.72656461 38.0058594,9.3046875 C37.3261685,8.27343234 36.6230505,7.69921934 35.8964844,7.58203125 C35.2285123,7.47656197 34.3203182,7.42382812 33.171875,7.42382812 L33.171875,7.42382812 Z M43.4066964,17.25 C43.1723203,18.0117226 43.0551339,18.9023387 43.0551339,19.921875 C43.0551339,20.9414113 43.1723203,21.9316358 43.4066964,22.8925781 C43.6410726,23.8535204 43.9809129,24.7148399 44.4262277,25.4765625 C45.4106076,27.1640709 46.658642,28.0078125 48.1703683,28.0078125 C49.6469382,28.0078125 50.7895049,27.4570368 51.5981027,26.3554688 C52.3481064,25.3359324 52.7231027,23.9531337 52.7231027,22.2070312 C52.7231027,19.898426 52.266076,17.9648515 51.3520089,16.40625 C50.4027854,14.753898 49.1664697,13.9277344 47.6430245,13.9277344 C45.4984826,13.9277344 44.0863873,15.0351452 43.4066964,17.25 L43.4066964,17.25 Z M39.5395089,21.0117188 C39.5395089,18.5742066 40.3598132,16.5703204 42.0004464,15 C43.5824856,13.4999925 45.498482,12.75 47.7484933,12.75 C50.1508491,12.75 52.1371573,13.4882739 53.7074777,14.9648438 C55.3598297,16.5117265 56.1859933,18.521472 56.1859933,20.9941406 C56.1859933,23.4668092 55.365689,25.499992 53.7250558,27.09375 C52.1664543,28.6171951 50.2387392,29.3789062 47.9418527,29.3789062 C45.6449662,29.3789062 43.6879545,28.6054765 42.0707589,27.0585938 C40.3832505,25.453117 39.5395089,23.4375121 39.5395089,21.0117188 L39.5395089,21.0117188 Z M77.5829241,28.1484375 L77.5477678,29.0273438 L68.7587053,29.0273438 C68.7352677,28.8984369 68.7235491,28.7460946 68.7235491,28.5703125 L68.7235491,28.1484375 C68.8641748,28.054687 69.0604619,27.9814456 69.3124163,27.9287109 C69.5643707,27.8759763 69.8192509,27.8144535 70.0770647,27.7441406 C70.7098804,27.5683585 71.0848766,27.3105486 71.2020647,26.9707031 C71.4598785,26.4667944 71.5887835,25.8105509 71.5887835,25.0019531 L71.5887835,18.8847656 C71.5887835,17.513665 71.4335116,16.5673854 71.1229632,16.0458984 C70.8124147,15.5244115 70.4696447,15.1611338 70.0946428,14.9560547 C69.719641,14.7509755 69.2743329,14.6484375 68.7587053,14.6484375 C68.2430778,14.6484375 67.7860511,14.7158196 67.3876116,14.8505859 C66.9891721,14.9853522 66.6141759,15.1640614 66.2626116,15.3867188 C65.68839,15.7500018 65.0497245,16.3242148 64.346596,17.109375 L64.346596,24.8964844 C64.346596,26.1972721 64.4755009,26.9531239 64.7333147,27.1640625 C64.9911285,27.3750011 65.2489384,27.5302729 65.5067522,27.6298828 C65.764566,27.7294927 66.0311649,27.8144528 66.3065569,27.8847656 C66.5819489,27.9550785 66.8192512,28.0429682 67.018471,28.1484375 L66.9833147,29.0273438 L58.3172991,29.0273438 C58.3055803,28.9687497 58.299721,28.9101565 58.299721,28.8515625 L58.299721,28.1484375 C58.4520655,28.054687 58.6630009,27.9755863 58.9325335,27.9111328 C59.2020661,27.8466794 59.4715946,27.7675786 59.7411272,27.6738281 C60.3973805,27.439452 60.7723768,27.0937523 60.8661272,26.6367188 C60.9950341,26.1562476 61.0594866,25.6523464 61.0594866,25.125 L61.0594866,16.3007812 C60.7079223,15.6679656 59.7411351,15.1464864 58.159096,14.7363281 L58.2118303,14.1386719 L63.1161272,12.9433594 L64.1883928,12.9433594 L64.346596,15.4746094 C65.6005085,14.1035088 66.9071361,13.2539079 68.2665178,12.9257812 C68.7821454,12.8085932 69.3504991,12.75 69.971596,12.75 C72.2216072,12.75 73.7450295,13.6933499 74.5419085,15.5800781 C75.3973815,14.6425734 76.1063588,14.0097673 76.6688616,13.6816406 C77.6883979,13.0839814 78.6727631,12.7851562 79.6219866,12.7851562 C80.5712101,12.7851562 81.3534288,12.8701163 81.9686663,13.0400391 C82.5839037,13.2099618 83.1200312,13.4707014 83.5770647,13.8222656 C84.538007,14.5488318 85.0887828,15.6562426 85.2294085,17.1445312 C85.3231589,18.199224 85.3700335,19.3066348 85.3700335,20.4667969 L85.3700335,25.0722656 C85.3700335,25.6816437 85.4022597,26.1533186 85.4667132,26.4873047 C85.5311666,26.8212907 85.6571419,27.067382 85.8446428,27.2255859 C86.0321438,27.3837899 86.2460088,27.5126948 86.4862444,27.6123047 C86.72648,27.7119146 86.9725713,27.7998043 87.2245257,27.8759766 C87.47648,27.9521488 87.6962044,28.0429682 87.8837053,28.1484375 L87.8485491,29.0273438 L79.393471,29.0273438 C79.3700334,28.8984369 79.3583147,28.7460946 79.3583147,28.5703125 L79.3583147,28.1484375 C79.5458157,28.0429682 79.774329,27.9550785 80.0438616,27.8847656 C80.3133942,27.8144528 80.5770634,27.726563 80.8348772,27.6210938 C81.4794117,27.3867176 81.8485486,27.0468772 81.9422991,26.6015625 C82.0360496,26.0976537 82.0829241,25.5878932 82.0829241,25.0722656 L82.0829241,18.09375 C82.0829241,16.992182 81.8075362,16.1396515 81.2567522,15.5361328 C80.7059682,14.9326142 79.8973826,14.6308594 78.830971,14.6308594 C77.4598704,14.6308594 76.1063683,15.3632739 74.7704241,16.828125 C74.8407369,17.5546911 74.8758928,18.8554594 74.8758928,20.7304688 L74.8758928,24.984375 C74.8758928,25.6640659 74.9051894,26.1621078 74.9637835,26.4785156 C75.0223775,26.7949235 75.1542121,27.0351554 75.3592913,27.1992188 C75.5643704,27.3632821 75.7987431,27.4980463 76.0624163,27.6035156 C76.3260895,27.7089849 76.595618,27.7998043 76.87101,27.8759766 C77.146402,27.9521488 77.3837044,28.0429682 77.5829241,28.1484375 L77.5829241,28.1484375 Z M93.4779018,17.25 C93.2435256,18.0117226 93.1263393,18.9023387 93.1263393,19.921875 C93.1263393,20.9414113 93.2435256,21.9316358 93.4779018,22.8925781 C93.7122779,23.8535204 94.0521183,24.7148399 94.497433,25.4765625 C95.4818129,27.1640709 96.7298473,28.0078125 98.2415736,28.0078125 C99.7181435,28.0078125 100.86071,27.4570368 101.669308,26.3554688 C102.419312,25.3359324 102.794308,23.9531337 102.794308,22.2070312 C102.794308,19.898426 102.337281,17.9648515 101.423214,16.40625 C100.473991,14.753898 99.237675,13.9277344 97.7142299,13.9277344 C95.5696879,13.9277344 94.1575927,15.0351452 93.4779018,17.25 L93.4779018,17.25 Z M89.6107143,21.0117188 C89.6107143,18.5742066 90.4310186,16.5703204 92.0716518,15 C93.6536909,13.4999925 95.5696874,12.75 97.8196986,12.75 C100.222054,12.75 102.208363,13.4882739 103.778683,14.9648438 C105.431035,16.5117265 106.257199,18.521472 106.257199,20.9941406 C106.257199,23.4668092 105.436894,25.499992 103.796261,27.09375 C102.23766,28.6171951 100.309945,29.3789062 98.013058,29.3789062 C95.7161715,29.3789062 93.7591599,28.6054765 92.1419643,27.0585938 C90.4544558,25.453117 89.6107143,23.4375121 89.6107143,21.0117188 L89.6107143,21.0117188 Z M110.990067,16.3183594 C110.66194,15.7675754 109.742028,15.2871114 108.230301,14.8769531 L108.265458,14.2617188 L112.941239,12.9257812 L113.943192,12.9257812 L114.224442,16.1601562 C115.197103,14.3906162 116.269358,13.3359392 117.441239,12.9960938 C117.839678,12.8906245 118.241041,12.8378906 118.64534,12.8378906 C119.049639,12.8378906 119.404128,12.8964838 119.708817,13.0136719 C120.013506,13.13086 120.277175,13.2832022 120.499833,13.4707031 C120.968585,13.8691426 121.202958,14.302732 121.202958,14.7714844 C121.202958,15.1347674 121.109209,15.4863264 120.921708,15.8261719 C120.570143,16.5175816 120.180499,16.8632812 119.752762,16.8632812 C119.325026,16.8632812 119.005693,16.7695322 118.794754,16.5820312 C118.583816,16.3945303 118.402177,16.1894542 118.249833,15.9667969 C118.097488,15.7441395 117.942216,15.5390634 117.784012,15.3515625 C117.625808,15.1640616 117.394365,15.0703125 117.089676,15.0703125 C116.784987,15.0703125 116.50081,15.1552726 116.237137,15.3251953 C115.973464,15.495118 115.730302,15.7148424 115.507645,15.984375 C115.284988,16.2539076 115.074052,16.5585921 114.874833,16.8984375 C114.675613,17.2382829 114.476396,17.572264 114.277176,17.9003906 L114.277176,24.4394531 C114.277176,25.5293023 114.326981,26.2617169 114.42659,26.6367188 C114.5262,27.0117206 114.69612,27.2724602 114.936356,27.4189453 C115.176592,27.5654304 115.457839,27.6767574 115.780106,27.7529297 C116.102373,27.8291019 116.439284,27.8906248 116.790848,27.9375 C117.142412,27.9843752 117.452956,28.054687 117.722489,28.1484375 L117.704911,28.6933594 L117.704911,29.0273438 L108.283036,29.0273438 C108.271317,28.9804685 108.265458,28.9101567 108.265458,28.8164062 L108.265458,28.2011719 C108.265458,28.1425778 108.271317,28.1015626 108.283036,28.078125 C108.681475,27.9609369 109.047682,27.8671879 109.381669,27.796875 C109.715655,27.7265621 109.999831,27.6093758 110.234208,27.4453125 C110.738116,27.1054671 110.990067,26.3730525 110.990067,25.2480469 L110.990067,16.3183594 Z M124.86356,16.3183594 C124.535434,15.7675754 123.615521,15.2871114 122.103795,14.8769531 L122.138951,14.2617188 L126.814732,12.9257812 L127.816685,12.9257812 L128.097935,16.1601562 C129.070596,14.3906162 130.142851,13.3359392 131.314732,12.9960938 C131.713172,12.8906245 132.114535,12.8378906 132.518834,12.8378906 C132.923133,12.8378906 133.277621,12.8964838 133.58231,13.0136719 C133.886999,13.13086 134.150669,13.2832022 134.373326,13.4707031 C134.842078,13.8691426 135.076451,14.302732 135.076451,14.7714844 C135.076451,15.1347674 134.982702,15.4863264 134.795201,15.8261719 C134.443637,16.5175816 134.053992,16.8632812 133.626256,16.8632812 C133.198519,16.8632812 132.879186,16.7695322 132.668248,16.5820312 C132.457309,16.3945303 132.27567,16.1894542 132.123326,15.9667969 C131.970981,15.7441395 131.815709,15.5390634 131.657506,15.3515625 C131.499302,15.1640616 131.267859,15.0703125 130.96317,15.0703125 C130.658481,15.0703125 130.374304,15.1552726 130.110631,15.3251953 C129.846957,15.495118 129.603796,15.7148424 129.381138,15.984375 C129.158481,16.2539076 128.947546,16.5585921 128.748326,16.8984375 C128.549106,17.2382829 128.349889,17.572264 128.15067,17.9003906 L128.15067,24.4394531 C128.15067,25.5293023 128.200474,26.2617169 128.300084,26.6367188 C128.399694,27.0117206 128.569614,27.2724602 128.809849,27.4189453 C129.050085,27.5654304 129.331332,27.6767574 129.653599,27.7529297 C129.975867,27.8291019 130.312777,27.8906248 130.664341,27.9375 C131.015906,27.9843752 131.32645,28.054687 131.595982,28.1484375 L131.578404,28.6933594 L131.578404,29.0273438 L122.156529,29.0273438 C122.14481,28.9804685 122.138951,28.9101567 122.138951,28.8164062 L122.138951,28.2011719 C122.138951,28.1425778 122.14481,28.1015626 122.156529,28.078125 C122.554968,27.9609369 122.921176,27.8671879 123.255162,27.796875 C123.589148,27.7265621 123.873325,27.6093758 124.107701,27.4453125 C124.61161,27.1054671 124.86356,26.3730525 124.86356,25.2480469 L124.86356,16.3183594 Z M140.283929,17.25 C140.049552,18.0117226 139.932366,18.9023387 139.932366,19.921875 C139.932366,20.9414113 140.049552,21.9316358 140.283929,22.8925781 C140.518305,23.8535204 140.858145,24.7148399 141.30346,25.4765625 C142.28784,27.1640709 143.535874,28.0078125 145.0476,28.0078125 C146.52417,28.0078125 147.666737,27.4570368 148.475335,26.3554688 C149.225339,25.3359324 149.600335,23.9531337 149.600335,22.2070312 C149.600335,19.898426 149.143308,17.9648515 148.229241,16.40625 C147.280018,14.753898 146.043702,13.9277344 144.520257,13.9277344 C142.375715,13.9277344 140.963619,15.0351452 140.283929,17.25 L140.283929,17.25 Z M136.416741,21.0117188 C136.416741,18.5742066 137.237045,16.5703204 138.877679,15 C140.459718,13.4999925 142.375714,12.75 144.625725,12.75 C147.028081,12.75 149.014389,13.4882739 150.58471,14.9648438 C152.237062,16.5117265 153.063225,18.521472 153.063225,20.9941406 C153.063225,23.4668092 152.242921,25.499992 150.602288,27.09375 C149.043686,28.6171951 147.115971,29.3789062 144.819085,29.3789062 C142.522198,29.3789062 140.565187,28.6054765 138.947991,27.0585938 C137.260483,25.453117 136.416741,23.4375121 136.416741,21.0117188 L136.416741,21.0117188 Z M159.466016,15.6679688 C159.466016,16.0078142 159.501171,16.2480462 159.571484,16.3886719 L162.823437,24.7558594 L166.040234,16.9335938 C165.48945,15.1054596 164.505085,14.150391 163.087109,14.0683594 L163.122266,13.2246094 L170.891797,13.2246094 C170.915234,13.5292984 170.926953,13.8105456 170.926953,14.0683594 C170.704296,14.1738287 170.475782,14.2617184 170.241406,14.3320312 C170.00703,14.4023441 169.790235,14.4843745 169.591016,14.578125 C169.133982,14.7890636 168.905469,15.1054666 168.905469,15.5273438 C168.905469,15.820314 169.010936,16.2304661 169.221875,16.7578125 L172.087109,24.6152344 L174.829297,17.2148438 C175.051954,16.6289033 175.163281,16.1572283 175.163281,15.7998047 C175.163281,15.442381 175.116407,15.1757821 175.022656,15 C174.928906,14.8242179 174.791212,14.6894536 174.60957,14.5957031 C174.427929,14.5019527 174.205275,14.4257815 173.941602,14.3671875 C173.677928,14.3085935 173.376174,14.226563 173.036328,14.1210938 C173.01289,14.0039057 173.001172,13.8632821 173.001172,13.6992188 C173.001172,13.5468742 173.01289,13.3886727 173.036328,13.2246094 L179.20625,13.2246094 L179.20625,14.15625 C178.397652,14.2617193 177.618363,14.7890578 176.868359,15.7382812 C176.657421,15.996095 176.510938,16.2421863 176.428906,16.4765625 L171.682812,29.2734375 C171.553906,29.3437504 171.378126,29.3789062 171.155469,29.3789062 C170.932811,29.3789062 170.751173,29.3437504 170.610547,29.2734375 L166.620312,18.5507812 L162.383984,29.2734375 C162.243359,29.3437504 162.052931,29.3789062 161.812695,29.3789062 C161.57246,29.3789062 161.393751,29.3437504 161.276562,29.2734375 L156.372266,16.7402344 C156.044139,15.9199178 155.768751,15.369142 155.546094,15.0878906 C155.135935,14.572263 154.602738,14.238282 153.946484,14.0859375 L153.981641,13.2246094 L161.223828,13.2246094 C161.235547,13.3769539 161.241406,13.5234368 161.241406,13.6640625 L161.241406,14.0683594 C160.057807,14.4433612 159.466016,14.976559 159.466016,15.6679688 L159.466016,15.6679688 Z" id="Tomorrow"></path>
            <path d="M9.86463182,41.6776548 C9.86463182,42.004775 9.83143448,42.3156965 9.76503879,42.6104286 C9.6986431,42.9051607 9.60228983,43.179646 9.47597609,43.4338929 C9.34966235,43.6881398 9.19582099,43.9189018 9.01444741,44.1261859 C8.83307383,44.33347 8.62903161,44.5132215 8.40231464,44.6654458 L10.190131,46.5941498 L9.41281953,46.5941498 C9.29622223,46.5941498 9.19258174,46.577956 9.10189495,46.5455678 C9.01120816,46.5131797 8.92861964,46.4565013 8.85412692,46.375531 L7.62986138,45.0443851 C7.44524898,45.1026837 7.25335213,45.1480265 7.05416508,45.1804146 C6.85497802,45.2128027 6.64688735,45.2289966 6.42988681,45.2289966 C5.91815421,45.2289966 5.451772,45.1423596 5.03072619,44.969083 C4.60968037,44.7958065 4.24855804,44.5520894 3.94734834,44.2379245 C3.64613864,43.9237595 3.41294754,43.5488724 3.24776803,43.1132519 C3.08258852,42.6776315 3,42.1991039 3,41.6776548 C3,41.1562058 3.08258852,40.6776782 3.24776803,40.2420577 C3.41294754,39.8064373 3.64613864,39.4307405 3.94734834,39.1149561 C4.24855804,38.7991718 4.60968037,38.5538353 5.03072619,38.3789393 C5.451772,38.2040434 5.91815421,38.1165967 6.42988681,38.1165967 C6.94161941,38.1165967 7.40881132,38.2040434 7.83147654,38.3789393 C8.25414175,38.5538353 8.61607378,38.7991718 8.91728348,39.1149561 C9.21849318,39.4307405 9.45168428,39.8064373 9.61686379,40.2420577 C9.7820433,40.6776782 9.86463182,41.1562058 9.86463182,41.6776548 L9.86463182,41.6776548 Z M8.89785069,41.6776548 C8.89785069,41.2501314 8.83955292,40.8663377 8.72295561,40.5262622 C8.60635831,40.1861868 8.44118128,39.8987464 8.22741956,39.6639323 C8.01365784,39.4291183 7.75455661,39.2485572 7.4501081,39.1222434 C7.14565959,38.9959297 6.80558923,38.9327738 6.42988681,38.9327738 C6.05742321,38.9327738 5.71897223,38.9959297 5.41452372,39.1222434 C5.11007521,39.2485572 4.85016429,39.4291183 4.63478316,39.6639323 C4.41940203,39.8987464 4.25341531,40.1861868 4.13681801,40.5262622 C4.02022071,40.8663377 3.96192293,41.2501314 3.96192293,41.6776548 C3.96192293,42.1051783 4.02022071,42.4881623 4.13681801,42.8266183 C4.25341531,43.1650744 4.41940203,43.4517051 4.63478316,43.6865191 C4.85016429,43.9213332 5.11007521,44.1010846 5.41452372,44.225779 C5.71897223,44.3504733 6.05742321,44.4128195 6.42988681,44.4128195 C6.80558923,44.4128195 7.14565959,44.3504733 7.4501081,44.225779 C7.75455661,44.1010846 8.01365784,43.9213332 8.22741956,43.6865191 C8.44118128,43.4517051 8.60635831,43.1650744 8.72295561,42.8266183 C8.83955292,42.4881623 8.89785069,42.1051783 8.89785069,41.6776548 L8.89785069,41.6776548 Z M11.7641867,40.2347704 L11.7641867,43.3731655 C11.7641867,43.7456291 11.850014,44.0338792 12.0216711,44.2379245 C12.1933283,44.4419697 12.4524295,44.5439908 12.7989826,44.5439908 C13.0516101,44.5439908 13.2896593,44.4840737 13.5131375,44.3642376 C13.7366156,44.2444015 13.9422772,44.077605 14.1301284,43.8638433 L14.1301284,40.2347704 L14.9948874,40.2347704 L14.9948874,45.1561236 L14.4799186,45.1561236 C14.3568437,45.1561236 14.2791133,45.0962065 14.2467252,44.9763703 L14.1787104,44.4468269 C13.9649487,44.6832603 13.7252801,44.8735378 13.4596973,45.017665 C13.1941146,45.1617922 12.8896706,45.2338548 12.5463564,45.2338548 C12.2775348,45.2338548 12.0402952,45.1893217 11.8346305,45.1002544 C11.6289659,45.011187 11.4565016,44.8856848 11.3172326,44.7237441 C11.1779636,44.5618034 11.0735134,44.3658581 11.0038789,44.1359023 C10.9342444,43.9059465 10.8994277,43.6517035 10.8994277,43.3731655 L10.8994277,40.2347704 L11.7641867,40.2347704 Z M20.0328373,45.1561236 L19.6490398,45.1561236 C19.5648306,45.1561236 19.4968166,45.1431686 19.4449955,45.117258 C19.3931745,45.0913475 19.3591675,45.0362885 19.3429734,44.9520794 L19.2458095,44.4954089 C19.1162569,44.6120062 18.9899451,44.7164564 18.8668702,44.8087626 C18.7437952,44.9010688 18.6142446,44.9787991 18.4782144,45.041956 C18.3421842,45.1051129 18.1972495,45.1528847 18.0434058,45.1852728 C17.8895622,45.2176609 17.7187173,45.2338548 17.5308661,45.2338548 C17.3397761,45.2338548 17.1608343,45.2071349 16.9940354,45.1536945 C16.8272364,45.1002541 16.6823017,45.0200946 16.5592268,44.9132138 C16.4361518,44.8063329 16.3381792,44.6711145 16.2653059,44.5075544 C16.1924325,44.3439943 16.1559964,44.150478 16.1559964,43.9269999 C16.1559964,43.732671 16.2094361,43.5456323 16.3163169,43.3658782 C16.4231978,43.186124 16.595662,43.0266148 16.8337149,42.8873458 C17.0717677,42.7480768 17.3834989,42.6339103 17.7689177,42.5448429 C18.1543366,42.4557756 18.6255769,42.404765 19.1826529,42.3918097 L19.1826529,42.0080122 C19.1826529,41.6258322 19.1008741,41.3367724 18.937314,41.1408241 C18.7737539,40.9448759 18.5316562,40.8469032 18.2110136,40.8469032 C18.0004907,40.8469032 17.8231683,40.873623 17.6790411,40.9270635 C17.5349139,40.9805039 17.4102214,41.0404211 17.3049599,41.1068167 C17.1996985,41.1732124 17.1090131,41.2331296 17.0329009,41.28657 C16.9567888,41.3400104 16.8814875,41.3667303 16.8069948,41.3667303 C16.7486961,41.3667303 16.6976856,41.3513461 16.6539616,41.3205774 C16.6102376,41.2898087 16.5754209,41.2517532 16.5495104,41.2064098 L16.3940481,40.9294926 C16.6661084,40.6671486 16.9592167,40.4712033 17.2733817,40.3416508 C17.5875466,40.2120982 17.9357139,40.1473229 18.3178939,40.1473229 C18.5931931,40.1473229 18.8377199,40.1926656 19.0514816,40.2833524 C19.2652433,40.3740392 19.4449948,40.500351 19.5907414,40.6622917 C19.7364881,40.8242324 19.8466061,41.0201777 19.9210988,41.2501335 C19.9955915,41.4800893 20.0328373,41.732713 20.0328373,42.0080122 L20.0328373,45.1561236 Z M17.7883505,44.6265802 C17.9405748,44.6265802 18.0798417,44.6111961 18.2061554,44.5804273 C18.3324692,44.5496586 18.4514938,44.5059353 18.5632329,44.449256 C18.6749719,44.3925768 18.7818512,44.323753 18.8838738,44.2427827 C18.9858965,44.1618123 19.0854885,44.0695075 19.1826529,43.9658654 L19.1826529,42.940786 C18.7842788,42.9537412 18.4458278,42.9853192 18.1672898,43.0355208 C17.8887518,43.0857224 17.6620383,43.1513074 17.4871423,43.2322778 C17.3122464,43.3132481 17.1851248,43.4087917 17.1057739,43.5189114 C17.0264229,43.629031 16.9867481,43.7521041 16.9867481,43.8881343 C16.9867481,44.0176869 17.0078,44.1294243 17.0499046,44.2233499 C17.0920092,44.3172755 17.1486876,44.3941961 17.2199415,44.4541142 C17.2911954,44.5140323 17.3754033,44.5577556 17.4725677,44.5852855 C17.5697321,44.6128154 17.674992,44.6265802 17.7883505,44.6265802 L17.7883505,44.6265802 Z M21.3445504,45.1561236 L21.3445504,40.2347704 L21.8595193,40.2347704 C21.9825942,40.2347704 22.0603246,40.2946876 22.0927127,40.4145237 L22.1607275,40.9489253 C22.3744892,40.7124919 22.6133481,40.5214048 22.8773115,40.3756581 C23.1412748,40.2299115 23.4465284,40.1570393 23.7930815,40.1570393 C24.0619031,40.1570393 24.2991426,40.2015723 24.5048073,40.2906397 C24.710472,40.3797071 24.8821266,40.5060189 25.0197762,40.669579 C25.1574258,40.8331391 25.2618759,41.0298941 25.3331298,41.2598499 C25.4043838,41.4898057 25.4400102,41.7440488 25.4400102,42.0225868 L25.4400102,45.1561236 L24.5752512,45.1561236 L24.5752512,42.0225868 C24.5752512,41.6501232 24.4902336,41.3610634 24.3201959,41.1553987 C24.1501581,40.949734 23.8902472,40.8469032 23.5404553,40.8469032 C23.284589,40.8469032 23.0457301,40.9084398 22.8238713,41.0315147 C22.6020125,41.1545896 22.3971606,41.321386 22.2093094,41.5319089 L22.2093094,45.1561236 L21.3445504,45.1561236 Z M28.2383314,45.2338548 C27.8496738,45.2338548 27.5508976,45.1253561 27.3419941,44.9083556 C27.1330907,44.6913551 27.0286405,44.3788142 27.0286405,43.9707236 L27.0286405,40.9586417 L26.4359405,40.9586417 C26.3841195,40.9586417 26.3403961,40.9432576 26.3047692,40.9124889 C26.2691422,40.8817201 26.251329,40.8339484 26.251329,40.7691721 L26.251329,40.4242401 L27.0577896,40.322218 L27.2569757,38.8016024 C27.2634533,38.7530202 27.2845053,38.7133454 27.3201323,38.6825766 C27.3557592,38.6518079 27.4011019,38.6364238 27.4561618,38.6364238 L27.8933995,38.6364238 L27.8933995,40.3319344 L29.3022765,40.3319344 L29.3022765,40.9586417 L27.8933995,40.9586417 L27.8933995,43.9124253 C27.8933995,44.1197094 27.9436003,44.2735507 28.0440036,44.373954 C28.1444068,44.4743572 28.2739574,44.5245581 28.4326593,44.5245581 C28.5233461,44.5245581 28.6018861,44.5124127 28.6682818,44.4881216 C28.7346775,44.4638305 28.7921656,44.4371107 28.8407478,44.4079613 C28.88933,44.378812 28.9306243,44.3520922 28.9646318,44.3278011 C28.9986394,44.30351 29.0285979,44.2913646 29.0545085,44.2913646 C29.0998519,44.2913646 29.1403364,44.3188941 29.1759634,44.373954 L29.4285896,44.7869007 C29.2796042,44.9261697 29.0998527,45.035478 28.8893298,45.1148289 C28.6788069,45.1941799 28.4618096,45.2338548 28.2383314,45.2338548 L28.2383314,45.2338548 Z M31.3330027,40.2347704 L31.3330027,45.1561236 L30.4682437,45.1561236 L30.4682437,40.2347704 L31.3330027,40.2347704 Z M31.5273305,38.6898639 C31.5273305,38.7740731 31.510327,38.8526131 31.4763195,38.9254865 C31.4423119,38.9983598 31.3969692,39.0631351 31.34029,39.1198143 C31.2836107,39.1764936 31.2180257,39.2210266 31.143533,39.2534147 C31.0690403,39.2858029 30.9896905,39.3019967 30.9054814,39.3019967 C30.8212722,39.3019967 30.7427321,39.2858029 30.6698588,39.2534147 C30.5969855,39.2210266 30.5322102,39.1764936 30.475531,39.1198143 C30.4188517,39.0631351 30.3743187,38.9983598 30.3419306,38.9254865 C30.3095424,38.8526131 30.2933486,38.7740731 30.2933486,38.6898639 C30.2933486,38.6056548 30.3095424,38.5254953 30.3419306,38.4493832 C30.3743187,38.3732711 30.4188517,38.3068764 30.475531,38.2501971 C30.5322102,38.1935179 30.5969855,38.1489849 30.6698588,38.1165967 C30.7427321,38.0842086 30.8212722,38.0680148 30.9054814,38.0680148 C30.9896905,38.0680148 31.0690403,38.0842086 31.143533,38.1165967 C31.2180257,38.1489849 31.2836107,38.1935179 31.34029,38.2501971 C31.3969692,38.3068764 31.4423119,38.3732711 31.4763195,38.4493832 C31.510327,38.5254953 31.5273305,38.6056548 31.5273305,38.6898639 L31.5273305,38.6898639 Z M33.0528043,45.1561236 L33.0528043,40.9732163 L32.5086863,40.9100598 C32.4406712,40.8938657 32.3848025,40.8687653 32.3410785,40.8347577 C32.2973545,40.8007502 32.2754928,40.751359 32.2754928,40.6865827 L32.2754928,40.3319344 L33.0528043,40.3319344 L33.0528043,39.8558311 C33.0528043,39.5740543 33.0924791,39.3238597 33.1718301,39.1052397 C33.251181,38.8866198 33.3645378,38.7020102 33.5119039,38.5514053 C33.6592699,38.4008005 33.8365923,38.286634 34.0438764,38.2089025 C34.2511605,38.1311709 34.4843516,38.0923057 34.7434567,38.0923057 C34.963696,38.0923057 35.1677383,38.1246934 35.3555895,38.1894697 L35.3361567,38.6218492 C35.3329179,38.6866254 35.3053884,38.7254906 35.2535673,38.7384459 C35.2017463,38.7514011 35.1288741,38.7578787 35.0349485,38.7578787 L34.8843444,38.7578787 C34.735359,38.7578787 34.6001405,38.7773113 34.478685,38.816177 C34.3572295,38.8550428 34.2527793,38.9181987 34.1653313,39.0056467 C34.0778833,39.0930947 34.0106789,39.2080708 33.9637161,39.3505787 C33.9167533,39.4930865 33.8932723,39.6695992 33.8932723,39.8801221 L33.8932723,40.3319344 L35.3167239,40.3319344 L35.3167239,40.9586417 L33.9224215,40.9586417 L33.9224215,45.1561236 L33.0528043,45.1561236 Z M37.5757853,46.6087244 C37.546636,46.6735007 37.5101999,46.7253209 37.4664759,46.7641867 C37.4227519,46.8030525 37.3555475,46.8224851 37.2648607,46.8224851 L36.6235788,46.8224851 L37.5223452,44.86949 L35.491619,40.2347704 L36.2397813,40.2347704 C36.314274,40.2347704 36.3725718,40.2533933 36.4146763,40.2906397 C36.4567809,40.3278861 36.4875492,40.3691803 36.5069821,40.4145237 L37.8235534,43.5140532 C37.8527027,43.5853071 37.8778031,43.6565599 37.8988554,43.7278138 C37.9199077,43.7990677 37.9385306,43.8719399 37.9547247,43.9464327 C37.9773964,43.8719399 38.0000677,43.7990677 38.0227394,43.7278138 C38.0454111,43.6565599 38.0713212,43.5836877 38.1004706,43.509195 L39.3781763,40.4145237 C39.3976092,40.3627027 39.4308065,40.3197891 39.4777693,40.2857815 C39.5247321,40.251774 39.5757427,40.2347704 39.6308025,40.2347704 L40.3206664,40.2347704 L37.5757853,46.6087244 Z M44.4744245,45.2338548 C44.0857668,45.2338548 43.7869907,45.1253561 43.5780872,44.9083556 C43.3691837,44.6913551 43.2647336,44.3788142 43.2647336,43.9707236 L43.2647336,40.9586417 L42.6720336,40.9586417 C42.6202126,40.9586417 42.5764892,40.9432576 42.5408623,40.9124889 C42.5052353,40.8817201 42.4874221,40.8339484 42.4874221,40.7691721 L42.4874221,40.4242401 L43.2938827,40.322218 L43.4930688,38.8016024 C43.4995464,38.7530202 43.5205984,38.7133454 43.5562254,38.6825766 C43.5918523,38.6518079 43.637195,38.6364238 43.6922549,38.6364238 L44.1294926,38.6364238 L44.1294926,40.3319344 L45.5383696,40.3319344 L45.5383696,40.9586417 L44.1294926,40.9586417 L44.1294926,43.9124253 C44.1294926,44.1197094 44.1796934,44.2735507 44.2800967,44.373954 C44.3804999,44.4743572 44.5100505,44.5245581 44.6687524,44.5245581 C44.7594392,44.5245581 44.8379792,44.5124127 44.9043749,44.4881216 C44.9707706,44.4638305 45.0282587,44.4371107 45.0768409,44.4079613 C45.1254231,44.378812 45.1667174,44.3520922 45.2007249,44.3278011 C45.2347325,44.30351 45.264691,44.2913646 45.2906016,44.2913646 C45.3359449,44.2913646 45.3764295,44.3188941 45.4120565,44.373954 L45.6646827,44.7869007 C45.5156972,44.9261697 45.3359458,45.035478 45.1254229,45.1148289 C44.9149,45.1941799 44.6979027,45.2338548 44.4744245,45.2338548 L44.4744245,45.2338548 Z M46.6071728,45.1561236 L46.6071728,38 L47.4719318,38 L47.4719318,40.8954852 C47.6824547,40.672007 47.9156458,40.4930652 48.1715121,40.3586545 C48.4273784,40.2242437 48.7221061,40.1570393 49.0557039,40.1570393 C49.3245255,40.1570393 49.561765,40.2015723 49.7674297,40.2906397 C49.9730944,40.3797071 50.144749,40.5060189 50.2823986,40.669579 C50.4200482,40.8331391 50.5244984,41.0298941 50.5957523,41.2598499 C50.6670062,41.4898057 50.7026326,41.7440488 50.7026326,42.0225868 L50.7026326,45.1561236 L49.8378736,45.1561236 L49.8378736,42.0225868 C49.8378736,41.6501232 49.752856,41.3610634 49.5828183,41.1553987 C49.4127805,40.949734 49.1528696,40.8469032 48.8030777,40.8469032 C48.5472114,40.8469032 48.3083525,40.9084398 48.0864937,41.0315147 C47.8646349,41.1545896 47.659783,41.321386 47.4719318,41.5319089 L47.4719318,45.1561236 L46.6071728,45.1561236 Z M53.9576243,40.1570393 C54.2523564,40.1570393 54.5244127,40.2064305 54.7738013,40.3052143 C55.02319,40.4039981 55.2385679,40.5465038 55.4199415,40.7327356 C55.6013151,40.9189674 55.7430111,41.1489197 55.8450337,41.4225995 C55.9470563,41.6962793 55.9980669,42.0080105 55.9980669,42.3578024 C55.9980669,42.4938326 55.9834925,42.584518 55.9543431,42.6298614 C55.9251938,42.6752048 55.8701348,42.6978761 55.7891644,42.6978761 L52.5147399,42.6978761 C52.5212175,43.0088023 52.5633215,43.2792392 52.641053,43.509195 C52.7187846,43.7391508 52.8256638,43.9310476 52.961694,44.0848913 C53.0977242,44.2387349 53.2596625,44.3537111 53.4475137,44.4298232 C53.6353649,44.5059354 53.8458846,44.5439908 54.0790792,44.5439908 C54.2960798,44.5439908 54.4831185,44.5188904 54.6402009,44.4686888 C54.7972834,44.4184872 54.9325019,44.3642379 55.0458604,44.3059392 C55.1592188,44.2476406 55.2539527,44.1933912 55.3300649,44.1431896 C55.406177,44.092988 55.471762,44.0678876 55.5268218,44.0678876 C55.5980757,44.0678876 55.6531347,44.0954171 55.6920005,44.1504769 L55.9349103,44.4662597 C55.8280295,44.5958123 55.7000982,44.7083594 55.5511128,44.8039044 C55.4021274,44.8994494 55.2426182,44.9779894 55.0725804,45.0395269 C54.9025427,45.1010644 54.7268397,45.1472168 54.5454661,45.1779855 C54.3640925,45.2087542 54.184341,45.2241384 54.0062063,45.2241384 C53.6661308,45.2241384 53.3527803,45.1666503 53.0661452,45.0516724 C52.7795102,44.9366945 52.5317447,44.7682787 52.3228412,44.5464199 C52.1139377,44.3245612 51.9511897,44.0500758 51.8345924,43.7229556 C51.7179951,43.3958354 51.6596973,43.0201386 51.6596973,42.595854 C51.6596973,42.2525397 51.7123273,41.931902 51.8175887,41.6339311 C51.9228502,41.3359602 52.0742624,41.0776687 52.2718301,40.8590487 C52.4693977,40.6404288 52.7106858,40.4687742 52.9957014,40.3440799 C53.280717,40.2193855 53.6013548,40.1570393 53.9576243,40.1570393 L53.9576243,40.1570393 Z M53.9770571,40.7934631 C53.5592501,40.7934631 53.2305154,40.9141071 52.9908432,41.1553987 C52.751171,41.3966903 52.6021878,41.7310929 52.5438891,42.1586163 L55.2207554,42.1586163 C55.2207554,41.9578098 55.1932259,41.7740099 55.1381661,41.607211 C55.0831063,41.4404121 55.0021371,41.296287 54.8952563,41.1748315 C54.7883754,41.053376 54.6580151,40.9594518 54.5041714,40.8930561 C54.3503278,40.8266604 54.1746248,40.7934631 53.9770571,40.7934631 L53.9770571,40.7934631 Z M59.9380644,40.2347704 L59.9380644,45.1561236 L59.0733054,45.1561236 L59.0733054,40.2347704 L59.9380644,40.2347704 Z M60.1323922,38.6898639 C60.1323922,38.7740731 60.1153887,38.8526131 60.0813812,38.9254865 C60.0473736,38.9983598 60.0020309,39.0631351 59.9453516,39.1198143 C59.8886724,39.1764936 59.8230874,39.2210266 59.7485947,39.2534147 C59.674102,39.2858029 59.5947522,39.3019967 59.510543,39.3019967 C59.4263339,39.3019967 59.3477938,39.2858029 59.2749205,39.2534147 C59.2020472,39.2210266 59.1372719,39.1764936 59.0805926,39.1198143 C59.0239134,39.0631351 58.9793804,38.9983598 58.9469922,38.9254865 C58.9146041,38.8526131 58.8984103,38.7740731 58.8984103,38.6898639 C58.8984103,38.6056548 58.9146041,38.5254953 58.9469922,38.4493832 C58.9793804,38.3732711 59.0239134,38.3068764 59.0805926,38.2501971 C59.1372719,38.1935179 59.2020472,38.1489849 59.2749205,38.1165967 C59.3477938,38.0842086 59.4263339,38.0680148 59.510543,38.0680148 C59.5947522,38.0680148 59.674102,38.0842086 59.7485947,38.1165967 C59.8230874,38.1489849 59.8886724,38.1935179 59.9453516,38.2501971 C60.0020309,38.3068764 60.0473736,38.3732711 60.0813812,38.4493832 C60.1153887,38.5254953 60.1323922,38.6056548 60.1323922,38.6898639 L60.1323922,38.6898639 Z M61.4635381,45.1561236 L61.4635381,40.2347704 L61.9785069,40.2347704 C62.1015819,40.2347704 62.1793122,40.2946876 62.2117004,40.4145237 L62.2748569,40.9197762 C62.4562305,40.696298 62.659463,40.5133078 62.8845606,40.3707999 C63.1096582,40.2282921 63.3711885,40.1570393 63.6691594,40.1570393 C64.0027572,40.1570393 64.2723844,40.2493441 64.4780491,40.4339565 C64.6837138,40.6185689 64.8318873,40.8679538 64.9225741,41.1821188 C64.9905892,41.003984 65.0804649,40.8501427 65.192204,40.7205901 C65.3039431,40.5910375 65.4294452,40.4841583 65.5687142,40.3999491 C65.7079832,40.31574 65.8561567,40.2542034 66.0132392,40.2153377 C66.1703217,40.1764719 66.3298309,40.1570393 66.4917716,40.1570393 C66.7508767,40.1570393 66.9816387,40.1983336 67.1840646,40.2809233 C67.3864905,40.3635131 67.558145,40.4841571 67.6990334,40.642859 C67.8399219,40.8015608 67.9476108,40.9966965 68.0221035,41.2282717 C68.0965962,41.4598468 68.133842,41.7246159 68.133842,42.0225868 L68.133842,45.1561236 L67.269083,45.1561236 L67.269083,42.0225868 C67.269083,41.6371679 67.1848751,41.3448694 67.0164568,41.1456823 C66.8480385,40.9464953 66.6035117,40.8469032 66.2828691,40.8469032 C66.1403613,40.8469032 66.0051429,40.8720036 65.8772097,40.9222053 C65.7492766,40.9724069 65.6367295,41.0460888 65.5395651,41.1432532 C65.4424006,41.2404176 65.36548,41.362681 65.3088007,41.5100471 C65.2521215,41.6574131 65.2237823,41.828258 65.2237823,42.0225868 L65.2237823,45.1561236 L64.3590233,45.1561236 L64.3590233,42.0225868 C64.3590233,41.6274515 64.2796735,41.3327239 64.1209716,41.138395 C63.9622698,40.9440662 63.730698,40.8469032 63.4262495,40.8469032 C63.2124878,40.8469032 63.0141134,40.9043913 62.8311204,41.0193692 C62.6481274,41.1343471 62.4805213,41.2906175 62.3282971,41.4881852 L62.3282971,45.1561236 L61.4635381,45.1561236 Z M69.4406969,46.8224851 L69.4406969,40.2347704 L69.9556658,40.2347704 C70.0787407,40.2347704 70.1564711,40.2946876 70.1888592,40.4145237 L70.2617322,40.9975073 C70.4722551,40.741641 70.7127334,40.5359794 70.9831744,40.3805163 C71.2536153,40.2250533 71.5653465,40.1473229 71.9183772,40.1473229 C72.200154,40.1473229 72.4560165,40.2015722 72.6859723,40.3100725 C72.9159281,40.4185728 73.1118734,40.5788916 73.2738141,40.791034 C73.4357548,41.0031763 73.5604472,41.266326 73.6478952,41.5804909 C73.7353432,41.8946559 73.7790665,42.2557782 73.7790665,42.6638688 C73.7790665,43.0266159 73.730485,43.3642572 73.6333206,43.6768027 C73.5361562,43.9893483 73.3968893,44.2597852 73.2155157,44.4881216 C73.0341421,44.716458 72.811477,44.8962094 72.5475137,45.0273814 C72.2835503,45.1585534 71.9863936,45.2241384 71.6560346,45.2241384 C71.3515861,45.2241384 71.0916752,45.1739375 70.876294,45.0735343 C70.6609129,44.973131 70.4706354,44.8306254 70.3054559,44.646013 L70.3054559,46.8224851 L69.4406969,46.8224851 Z M71.6317436,40.8469032 C71.3499668,40.8469032 71.1030109,40.9116785 70.8908686,41.0412311 C70.6787263,41.1707836 70.4835907,41.3537739 70.3054559,41.5902073 L70.3054559,43.9707236 C70.4641578,44.1844854 70.6382415,44.335088 70.8277121,44.4225359 C71.0171827,44.5099839 71.2285121,44.5537072 71.4617067,44.5537072 C71.9183795,44.5537072 72.2697855,44.3901496 72.5159354,44.0630294 C72.7620853,43.7359092 72.8851583,43.269527 72.8851583,42.6638688 C72.8851583,42.3432262 72.8568191,42.0679311 72.8001399,41.8379753 C72.7434607,41.6080195 72.6616818,41.4193615 72.554801,41.2719954 C72.4479201,41.1246294 72.3167501,41.0169404 72.161287,40.9489253 C72.005824,40.8809103 71.8293113,40.8469032 71.6317436,40.8469032 L71.6317436,40.8469032 Z M78.4186443,45.1561236 L78.0348468,45.1561236 C77.9506376,45.1561236 77.8826235,45.1431686 77.8308025,45.117258 C77.7789815,45.0913475 77.7449744,45.0362885 77.7287804,44.9520794 L77.6316164,44.4954089 C77.5020639,44.6120062 77.375752,44.7164564 77.2526771,44.8087626 C77.1296022,44.9010688 77.0000516,44.9787991 76.8640214,45.041956 C76.7279912,45.1051129 76.5830564,45.1528847 76.4292128,45.1852728 C76.2753691,45.2176609 76.1045242,45.2338548 75.916673,45.2338548 C75.725583,45.2338548 75.5466412,45.2071349 75.3798423,45.1536945 C75.2130434,45.1002541 75.0681086,45.0200946 74.9450337,44.9132138 C74.8219588,44.8063329 74.7239861,44.6711145 74.6511128,44.5075544 C74.5782395,44.3439943 74.5418034,44.150478 74.5418034,43.9269999 C74.5418034,43.732671 74.595243,43.5456323 74.7021239,43.3658782 C74.8090047,43.186124 74.981469,43.0266148 75.2195218,42.8873458 C75.4575746,42.7480768 75.7693058,42.6339103 76.1547247,42.5448429 C76.5401435,42.4557756 77.0113839,42.404765 77.5684599,42.3918097 L77.5684599,42.0080122 C77.5684599,41.6258322 77.4866811,41.3367724 77.3231209,41.1408241 C77.1595608,40.9448759 76.9174631,40.8469032 76.5968206,40.8469032 C76.3862976,40.8469032 76.2089752,40.873623 76.064848,40.9270635 C75.9207208,40.9805039 75.7960283,41.0404211 75.6907669,41.1068167 C75.5855054,41.1732124 75.49482,41.2331296 75.4187079,41.28657 C75.3425957,41.3400104 75.2672945,41.3667303 75.1928017,41.3667303 C75.1345031,41.3667303 75.0834925,41.3513461 75.0397685,41.3205774 C74.9960445,41.2898087 74.9612278,41.2517532 74.9353173,41.2064098 L74.779855,40.9294926 C75.0519154,40.6671486 75.3450237,40.4712033 75.6591886,40.3416508 C75.9733536,40.2120982 76.3215208,40.1473229 76.7037009,40.1473229 C76.9790001,40.1473229 77.2235268,40.1926656 77.4372886,40.2833524 C77.6510503,40.3740392 77.8308018,40.500351 77.9765484,40.6622917 C78.122295,40.8242324 78.232413,41.0201777 78.3069058,41.2501335 C78.3813985,41.4800893 78.4186443,41.732713 78.4186443,42.0080122 L78.4186443,45.1561236 Z M76.1741574,44.6265802 C76.3263817,44.6265802 76.4656486,44.6111961 76.5919624,44.5804273 C76.7182761,44.5496586 76.8373007,44.5059353 76.9490398,44.449256 C77.0607789,44.3925768 77.1676581,44.323753 77.2696808,44.2427827 C77.3717034,44.1618123 77.4712955,44.0695075 77.5684599,43.9658654 L77.5684599,42.940786 C77.1700858,42.9537412 76.8316348,42.9853192 76.5530968,43.0355208 C76.2745588,43.0857224 76.0478452,43.1513074 75.8729493,43.2322778 C75.6980533,43.3132481 75.5709318,43.4087917 75.4915808,43.5189114 C75.4122299,43.629031 75.372555,43.7521041 75.372555,43.8881343 C75.372555,44.0176869 75.393607,44.1294243 75.4357116,44.2233499 C75.4778161,44.3172755 75.5344945,44.3941961 75.6057484,44.4541142 C75.6770023,44.5140323 75.7612102,44.5577556 75.8583747,44.5852855 C75.9555391,44.6128154 76.060799,44.6265802 76.1741574,44.6265802 L76.1741574,44.6265802 Z M83.0873712,41.1092458 C83.0614607,41.1448728 83.0355506,41.1724023 83.0096401,41.1918352 C82.9837296,41.2112681 82.9464838,41.2209844 82.8979016,41.2209844 C82.8493194,41.2209844 82.7966894,41.2007421 82.7400102,41.1602569 C82.6833309,41.1197717 82.6112684,41.0752387 82.5238204,41.0266565 C82.4363724,40.9780743 82.3303029,40.9335413 82.2056085,40.8930561 C82.0809142,40.8525709 81.9278825,40.8323286 81.746509,40.8323286 C81.5068367,40.8323286 81.2946976,40.8752423 81.1100852,40.9610708 C80.9254728,41.0468994 80.7708218,41.1707822 80.6461274,41.3327229 C80.5214331,41.4946636 80.4275089,41.6906089 80.364352,41.9205647 C80.3011952,42.1505205 80.2696172,42.4080023 80.2696172,42.6930179 C80.2696172,42.9909888 80.3036242,43.2557579 80.3716393,43.4873331 C80.4396544,43.7189083 80.535198,43.9132342 80.6582729,44.0703167 C80.7813479,44.2273991 80.9311408,44.3472335 81.1076561,44.4298232 C81.2841715,44.512413 81.4825458,44.5537072 81.7027852,44.5537072 C81.9133081,44.5537072 82.086582,44.5286068 82.2226122,44.4784052 C82.3586424,44.4282036 82.4719992,44.3723349 82.562686,44.3107974 C82.6533728,44.2492599 82.7278644,44.1933912 82.786163,44.1431896 C82.8444617,44.092988 82.9027595,44.0678876 82.9610581,44.0678876 C83.0355508,44.0678876 83.0906099,44.0954171 83.1262368,44.1504769 L83.3691466,44.4662597 C83.1553849,44.7286036 82.8881868,44.9205005 82.5675442,45.041956 C82.2469016,45.1634115 81.9084506,45.2241384 81.5521811,45.2241384 C81.2444938,45.2241384 80.9586727,45.16746 80.6947094,45.0541015 C80.4307461,44.940743 80.2016034,44.7763757 80.0072746,44.5609945 C79.8129457,44.3456134 79.6599141,44.0808443 79.548175,43.7666794 C79.4364359,43.4525144 79.3805672,43.0946309 79.3805672,42.6930179 C79.3805672,42.327032 79.4315778,41.988581 79.5336004,41.6776548 C79.635623,41.3667287 79.7846063,41.0987209 79.9805545,40.8736233 C80.1765027,40.6485257 80.4186004,40.4728227 80.7068549,40.346509 C80.9951093,40.2201952 81.3254634,40.1570393 81.697927,40.1570393 C82.0412413,40.1570393 82.3456852,40.212908 82.611268,40.3246471 C82.8768507,40.4363862 83.1116612,40.594276 83.3157065,40.7983213 L83.0873712,41.1092458 Z M85.7593794,45.2338548 C85.3707217,45.2338548 85.0719456,45.1253561 84.8630421,44.9083556 C84.6541386,44.6913551 84.5496884,44.3788142 84.5496884,43.9707236 L84.5496884,40.9586417 L83.9569884,40.9586417 C83.9051674,40.9586417 83.8614441,40.9432576 83.8258171,40.9124889 C83.7901902,40.8817201 83.772377,40.8339484 83.772377,40.7691721 L83.772377,40.4242401 L84.5788376,40.322218 L84.7780237,38.8016024 C84.7845013,38.7530202 84.8055533,38.7133454 84.8411802,38.6825766 C84.8768072,38.6518079 84.9221499,38.6364238 84.9772097,38.6364238 L85.4144474,38.6364238 L85.4144474,40.3319344 L86.8233244,40.3319344 L86.8233244,40.9586417 L85.4144474,40.9586417 L85.4144474,43.9124253 C85.4144474,44.1197094 85.4646483,44.2735507 85.5650515,44.373954 C85.6654547,44.4743572 85.7950054,44.5245581 85.9537072,44.5245581 C86.044394,44.5245581 86.1229341,44.5124127 86.1893298,44.4881216 C86.2557255,44.4638305 86.3132135,44.4371107 86.3617958,44.4079613 C86.410378,44.378812 86.4516722,44.3520922 86.4856798,44.3278011 C86.5196873,44.30351 86.5496459,44.2913646 86.5755564,44.2913646 C86.6208998,44.2913646 86.6613844,44.3188941 86.6970113,44.373954 L86.9496375,44.7869007 C86.8006521,44.9261697 86.6209006,45.035478 86.4103777,45.1148289 C86.1998548,45.1941799 85.9828575,45.2338548 85.7593794,45.2338548 L85.7593794,45.2338548 Z M91.7592522,40.1570393 C92.1187605,40.1570393 92.4434468,40.2169565 92.7333206,40.3367926 C93.0231945,40.4566287 93.2693406,40.6266639 93.4717665,40.8469032 C93.6741924,41.0671426 93.8296531,41.333531 93.9381534,41.6460766 C94.0466536,41.9586221 94.100903,42.3075991 94.100903,42.6930179 C94.100903,43.0816756 94.0466536,43.4314623 93.9381534,43.7423884 C93.8296531,44.0533145 93.6741924,44.3188933 93.4717665,44.5391326 C93.2693406,44.759372 93.0231945,44.9285975 92.7333206,45.0468142 C92.4434468,45.1650309 92.1187605,45.2241384 91.7592522,45.2241384 C91.3997438,45.2241384 91.0750576,45.1650309 90.7851838,45.0468142 C90.4953099,44.9285975 90.2483541,44.759372 90.0443088,44.5391326 C89.8402635,44.3188933 89.6831834,44.0533145 89.5730637,43.7423884 C89.462944,43.4314623 89.407885,43.0816756 89.407885,42.6930179 C89.407885,42.3075991 89.462944,41.9586221 89.5730637,41.6460766 C89.6831834,41.333531 89.8402635,41.0671426 90.0443088,40.8469032 C90.2483541,40.6266639 90.4953099,40.4566287 90.7851838,40.3367926 C91.0750576,40.2169565 91.3997438,40.1570393 91.7592522,40.1570393 L91.7592522,40.1570393 Z M91.7592522,44.548849 C92.2450743,44.548849 92.607816,44.3861011 92.8474882,44.0606003 C93.0871605,43.7350995 93.2069948,43.2808626 93.2069948,42.6978761 C93.2069948,42.1116508 93.0871605,41.6549849 92.8474882,41.3278647 C92.607816,41.0007445 92.2450743,40.8371868 91.7592522,40.8371868 C91.5131023,40.8371868 91.2993438,40.8792908 91.1179702,40.9634999 C90.9365967,41.0477091 90.7851844,41.1691628 90.6637289,41.3278647 C90.5422733,41.4865666 90.4515879,41.6817022 90.3916698,41.9132774 C90.3317518,42.1448526 90.3017932,42.4063829 90.3017932,42.6978761 C90.3017932,42.9893694 90.3317518,43.25009 90.3916698,43.4800458 C90.4515879,43.7100016 90.5422733,43.9035178 90.6637289,44.0606003 C90.7851844,44.2176828 90.9365967,44.3383268 91.1179702,44.4225359 C91.2993438,44.5067451 91.5131023,44.548849 91.7592522,44.548849 L91.7592522,44.548849 Z M95.3640341,45.1561236 L95.3640341,40.9732163 L94.8199161,40.9100598 C94.751901,40.8938657 94.6960323,40.8687653 94.6523083,40.8347577 C94.6085843,40.8007502 94.5867226,40.751359 94.5867226,40.6865827 L94.5867226,40.3319344 L95.3640341,40.3319344 L95.3640341,39.8558311 C95.3640341,39.5740543 95.403709,39.3238597 95.4830599,39.1052397 C95.5624108,38.8866198 95.6757676,38.7020102 95.8231337,38.5514053 C95.9704997,38.4008005 96.1478221,38.286634 96.3551062,38.2089025 C96.5623903,38.1311709 96.7955814,38.0923057 97.0546865,38.0923057 C97.2749259,38.0923057 97.4789681,38.1246934 97.6668193,38.1894697 L97.6473865,38.6218492 C97.6441477,38.6866254 97.6166182,38.7254906 97.5647972,38.7384459 C97.5129761,38.7514011 97.4401039,38.7578787 97.3461783,38.7578787 L97.1955742,38.7578787 C97.0465888,38.7578787 96.9113703,38.7773113 96.7899148,38.816177 C96.6684593,38.8550428 96.5640091,38.9181987 96.4765611,39.0056467 C96.3891131,39.0930947 96.3219088,39.2080708 96.2749459,39.3505787 C96.2279831,39.4930865 96.2045021,39.6695992 96.2045021,39.8801221 L96.2045021,40.3319344 L97.6279537,40.3319344 L97.6279537,40.9586417 L96.2336513,40.9586417 L96.2336513,45.1561236 L95.3640341,45.1561236 Z M102.267531,40.1570393 C102.562264,40.1570393 102.83432,40.2064305 103.083709,40.3052143 C103.333097,40.4039981 103.548475,40.5465038 103.729849,40.7327356 C103.911222,40.9189674 104.052918,41.1489197 104.154941,41.4225995 C104.256964,41.6962793 104.307974,42.0080105 104.307974,42.3578024 C104.307974,42.4938326 104.2934,42.584518 104.26425,42.6298614 C104.235101,42.6752048 104.180042,42.6978761 104.099072,42.6978761 L100.824647,42.6978761 C100.831125,43.0088023 100.873229,43.2792392 100.95096,43.509195 C101.028692,43.7391508 101.135571,43.9310476 101.271601,44.0848913 C101.407631,44.2387349 101.56957,44.3537111 101.757421,44.4298232 C101.945272,44.5059354 102.155792,44.5439908 102.388986,44.5439908 C102.605987,44.5439908 102.793026,44.5188904 102.950108,44.4686888 C103.107191,44.4184872 103.242409,44.3642379 103.355768,44.3059392 C103.469126,44.2476406 103.56386,44.1933912 103.639972,44.1431896 C103.716084,44.092988 103.781669,44.0678876 103.836729,44.0678876 C103.907983,44.0678876 103.963042,44.0954171 104.001908,44.1504769 L104.244817,44.4662597 C104.137937,44.5958123 104.010005,44.7083594 103.86102,44.8039044 C103.712035,44.8994494 103.552525,44.9779894 103.382488,45.0395269 C103.21245,45.1010644 103.036747,45.1472168 102.855373,45.1779855 C102.674,45.2087542 102.494248,45.2241384 102.316113,45.2241384 C101.976038,45.2241384 101.662687,45.1666503 101.376052,45.0516724 C101.089417,44.9366945 100.841652,44.7682787 100.632748,44.5464199 C100.423845,44.3245612 100.261097,44.0500758 100.1445,43.7229556 C100.027902,43.3958354 99.9696045,43.0201386 99.9696045,42.595854 C99.9696045,42.2525397 100.022234,41.931902 100.127496,41.6339311 C100.232757,41.3359602 100.38417,41.0776687 100.581737,40.8590487 C100.779305,40.6404288 101.020593,40.4687742 101.305609,40.3440799 C101.590624,40.2193855 101.911262,40.1570393 102.267531,40.1570393 L102.267531,40.1570393 Z M102.286964,40.7934631 C101.869157,40.7934631 101.540423,40.9141071 101.30075,41.1553987 C101.061078,41.3966903 100.912095,41.7310929 100.853796,42.1586163 L103.530663,42.1586163 C103.530663,41.9578098 103.503133,41.7740099 103.448073,41.607211 C103.393013,41.4404121 103.312044,41.296287 103.205163,41.1748315 C103.098283,41.053376 102.967922,40.9594518 102.814079,40.8930561 C102.660235,40.8266604 102.484532,40.7934631 102.286964,40.7934631 L102.286964,40.7934631 Z M104.788936,40.2347704 L105.498232,40.2347704 C105.566247,40.2347704 105.622926,40.2525837 105.668269,40.2882106 C105.713613,40.3238376 105.746,40.3659415 105.765433,40.4145237 L107.01399,43.5820679 C107.059333,43.6986652 107.094959,43.8152608 107.12087,43.9318581 C107.14678,44.0484554 107.171071,44.1634315 107.193743,44.27679 C107.219653,44.1634315 107.247183,44.0484554 107.276332,43.9318581 C107.305482,43.8152608 107.342727,43.6986652 107.388071,43.5820679 L108.651202,40.4145237 C108.670635,40.3627027 108.702213,40.3197891 108.745937,40.2857815 C108.789661,40.251774 108.84391,40.2347704 108.908686,40.2347704 L109.583976,40.2347704 L107.57754,45.1561236 L106.795371,45.1561236 L104.788936,40.2347704 Z M112.333715,40.1570393 C112.628447,40.1570393 112.900503,40.2064305 113.149892,40.3052143 C113.399281,40.4039981 113.614658,40.5465038 113.796032,40.7327356 C113.977406,40.9189674 114.119102,41.1489197 114.221124,41.4225995 C114.323147,41.6962793 114.374157,42.0080105 114.374157,42.3578024 C114.374157,42.4938326 114.359583,42.584518 114.330434,42.6298614 C114.301284,42.6752048 114.246225,42.6978761 114.165255,42.6978761 L110.89083,42.6978761 C110.897308,43.0088023 110.939412,43.2792392 111.017144,43.509195 C111.094875,43.7391508 111.201754,43.9310476 111.337785,44.0848913 C111.473815,44.2387349 111.635753,44.3537111 111.823604,44.4298232 C112.011455,44.5059354 112.221975,44.5439908 112.45517,44.5439908 C112.67217,44.5439908 112.859209,44.5188904 113.016291,44.4686888 C113.173374,44.4184872 113.308592,44.3642379 113.421951,44.3059392 C113.535309,44.2476406 113.630043,44.1933912 113.706155,44.1431896 C113.782268,44.092988 113.847853,44.0678876 113.902912,44.0678876 C113.974166,44.0678876 114.029225,44.0954171 114.068091,44.1504769 L114.311001,44.4662597 C114.20412,44.5958123 114.076189,44.7083594 113.927203,44.8039044 C113.778218,44.8994494 113.618709,44.9779894 113.448671,45.0395269 C113.278633,45.1010644 113.10293,45.1472168 112.921557,45.1779855 C112.740183,45.2087542 112.560432,45.2241384 112.382297,45.2241384 C112.042221,45.2241384 111.728871,45.1666503 111.442236,45.0516724 C111.155601,44.9366945 110.907835,44.7682787 110.698932,44.5464199 C110.490028,44.3245612 110.32728,44.0500758 110.210683,43.7229556 C110.094086,43.3958354 110.035788,43.0201386 110.035788,42.595854 C110.035788,42.2525397 110.088418,41.931902 110.193679,41.6339311 C110.298941,41.3359602 110.450353,41.0776687 110.647921,40.8590487 C110.845488,40.6404288 111.086776,40.4687742 111.371792,40.3440799 C111.656808,40.2193855 111.977445,40.1570393 112.333715,40.1570393 L112.333715,40.1570393 Z M112.353148,40.7934631 C111.935341,40.7934631 111.606606,40.9141071 111.366934,41.1553987 C111.127262,41.3966903 110.978278,41.7310929 110.91998,42.1586163 L113.596846,42.1586163 C113.596846,41.9578098 113.569316,41.7740099 113.514257,41.607211 C113.459197,41.4404121 113.378228,41.296287 113.271347,41.1748315 C113.164466,41.053376 113.034106,40.9594518 112.880262,40.8930561 C112.726418,40.8266604 112.550715,40.7934631 112.353148,40.7934631 L112.353148,40.7934631 Z M115.476968,45.1561236 L115.476968,40.2347704 L115.972504,40.2347704 C116.06643,40.2347704 116.131205,40.2525837 116.166832,40.2882106 C116.202459,40.3238376 116.22675,40.3853741 116.239705,40.4728221 L116.298003,41.2404171 C116.466422,40.8971029 116.674512,40.629095 116.922282,40.4363856 C117.170051,40.2436762 117.46073,40.1473229 117.794328,40.1473229 C117.930358,40.1473229 118.053431,40.162707 118.163551,40.1934758 C118.27367,40.2242445 118.375692,40.2671581 118.469617,40.322218 L118.357879,40.9683581 C118.335207,41.0493285 118.285006,41.089813 118.207275,41.089813 C118.161931,41.089813 118.092298,41.0744289 117.998372,41.0436602 C117.904447,41.0128914 117.773277,40.9975073 117.604858,40.9975073 C117.303649,40.9975073 117.051834,41.084954 116.849409,41.2598499 C116.646983,41.4347459 116.477757,41.688989 116.341727,42.0225868 L116.341727,45.1561236 L115.476968,45.1561236 Z M120.835559,46.6087244 C120.80641,46.6735007 120.769974,46.7253209 120.72625,46.7641867 C120.682526,46.8030525 120.615321,46.8224851 120.524634,46.8224851 L119.883352,46.8224851 L120.782119,44.86949 L118.751393,40.2347704 L119.499555,40.2347704 C119.574048,40.2347704 119.632345,40.2533933 119.67445,40.2906397 C119.716555,40.3278861 119.747323,40.3691803 119.766756,40.4145237 L121.083327,43.5140532 C121.112476,43.5853071 121.137577,43.6565599 121.158629,43.7278138 C121.179681,43.7990677 121.198304,43.8719399 121.214498,43.9464327 C121.23717,43.8719399 121.259841,43.7990677 121.282513,43.7278138 C121.305185,43.6565599 121.331095,43.5836877 121.360244,43.509195 L122.63795,40.4145237 C122.657383,40.3627027 122.69058,40.3197891 122.737543,40.2857815 C122.784506,40.251774 122.835516,40.2347704 122.890576,40.2347704 L123.58044,40.2347704 L120.835559,46.6087244 Z M129.599746,41.1092458 C129.573835,41.1448728 129.547925,41.1724023 129.522014,41.1918352 C129.496104,41.2112681 129.458858,41.2209844 129.410276,41.2209844 C129.361694,41.2209844 129.309064,41.2007421 129.252385,41.1602569 C129.195705,41.1197717 129.123643,41.0752387 129.036195,41.0266565 C128.948747,40.9780743 128.842677,40.9335413 128.717983,40.8930561 C128.593289,40.8525709 128.440257,40.8323286 128.258883,40.8323286 C128.019211,40.8323286 127.807072,40.8752423 127.62246,40.9610708 C127.437847,41.0468994 127.283196,41.1707822 127.158502,41.3327229 C127.033808,41.4946636 126.939883,41.6906089 126.876726,41.9205647 C126.81357,42.1505205 126.781992,42.4080023 126.781992,42.6930179 C126.781992,42.9909888 126.815999,43.2557579 126.884014,43.4873331 C126.952029,43.7189083 127.047572,43.9132342 127.170647,44.0703167 C127.293722,44.2273991 127.443515,44.3472335 127.620031,44.4298232 C127.796546,44.512413 127.99492,44.5537072 128.21516,44.5537072 C128.425683,44.5537072 128.598956,44.5286068 128.734987,44.4784052 C128.871017,44.4282036 128.984374,44.3723349 129.07506,44.3107974 C129.165747,44.2492599 129.240239,44.1933912 129.298537,44.1431896 C129.356836,44.092988 129.415134,44.0678876 129.473433,44.0678876 C129.547925,44.0678876 129.602984,44.0954171 129.638611,44.1504769 L129.881521,44.4662597 C129.667759,44.7286036 129.400561,44.9205005 129.079919,45.041956 C128.759276,45.1634115 128.420825,45.2241384 128.064556,45.2241384 C127.756868,45.2241384 127.471047,45.16746 127.207084,45.0541015 C126.94312,44.940743 126.713978,44.7763757 126.519649,44.5609945 C126.32532,44.3456134 126.172288,44.0808443 126.060549,43.7666794 C125.94881,43.4525144 125.892942,43.0946309 125.892942,42.6930179 C125.892942,42.327032 125.943952,41.988581 126.045975,41.6776548 C126.147997,41.3667287 126.296981,41.0987209 126.492929,40.8736233 C126.688877,40.6485257 126.930975,40.4728227 127.219229,40.346509 C127.507484,40.2201952 127.837838,40.1570393 128.210301,40.1570393 C128.553616,40.1570393 128.85806,40.212908 129.123642,40.3246471 C129.389225,40.4363862 129.624036,40.594276 129.828081,40.7983213 L129.599746,41.1092458 Z M130.780287,45.1561236 L130.780287,38 L131.645046,38 L131.645046,40.8954852 C131.855569,40.672007 132.08876,40.4930652 132.344627,40.3586545 C132.600493,40.2242437 132.895221,40.1570393 133.228819,40.1570393 C133.49764,40.1570393 133.73488,40.2015723 133.940544,40.2906397 C134.146209,40.3797071 134.317864,40.5060189 134.455513,40.669579 C134.593163,40.8331391 134.697613,41.0298941 134.768867,41.2598499 C134.840121,41.4898057 134.875747,41.7440488 134.875747,42.0225868 L134.875747,45.1561236 L134.010988,45.1561236 L134.010988,42.0225868 C134.010988,41.6501232 133.925971,41.3610634 133.755933,41.1553987 C133.585895,40.949734 133.325984,40.8469032 132.976192,40.8469032 C132.720326,40.8469032 132.481467,40.9084398 132.259608,41.0315147 C132.03775,41.1545896 131.832898,41.321386 131.645046,41.5319089 L131.645046,45.1561236 L130.780287,45.1561236 Z M138.174463,40.1570393 C138.533971,40.1570393 138.858657,40.2169565 139.148531,40.3367926 C139.438405,40.4566287 139.684551,40.6266639 139.886977,40.8469032 C140.089403,41.0671426 140.244864,41.333531 140.353364,41.6460766 C140.461864,41.9586221 140.516113,42.3075991 140.516113,42.6930179 C140.516113,43.0816756 140.461864,43.4314623 140.353364,43.7423884 C140.244864,44.0533145 140.089403,44.3188933 139.886977,44.5391326 C139.684551,44.759372 139.438405,44.9285975 139.148531,45.0468142 C138.858657,45.1650309 138.533971,45.2241384 138.174463,45.2241384 C137.814954,45.2241384 137.490268,45.1650309 137.200394,45.0468142 C136.91052,44.9285975 136.663565,44.759372 136.459519,44.5391326 C136.255474,44.3188933 136.098394,44.0533145 135.988274,43.7423884 C135.878155,43.4314623 135.823096,43.0816756 135.823096,42.6930179 C135.823096,42.3075991 135.878155,41.9586221 135.988274,41.6460766 C136.098394,41.333531 136.255474,41.0671426 136.459519,40.8469032 C136.663565,40.6266639 136.91052,40.4566287 137.200394,40.3367926 C137.490268,40.2169565 137.814954,40.1570393 138.174463,40.1570393 L138.174463,40.1570393 Z M138.174463,44.548849 C138.660285,44.548849 139.023026,44.3861011 139.262699,44.0606003 C139.502371,43.7350995 139.622205,43.2808626 139.622205,42.6978761 C139.622205,42.1116508 139.502371,41.6549849 139.262699,41.3278647 C139.023026,41.0007445 138.660285,40.8371868 138.174463,40.8371868 C137.928313,40.8371868 137.714554,40.8792908 137.533181,40.9634999 C137.351807,41.0477091 137.200395,41.1691628 137.078939,41.3278647 C136.957484,41.4865666 136.866798,41.6817022 136.80688,41.9132774 C136.746962,42.1448526 136.717004,42.4063829 136.717004,42.6978761 C136.717004,42.9893694 136.746962,43.25009 136.80688,43.4800458 C136.866798,43.7100016 136.957484,43.9035178 137.078939,44.0606003 C137.200395,44.2176828 137.351807,44.3383268 137.533181,44.4225359 C137.714554,44.5067451 137.928313,44.548849 138.174463,44.548849 L138.174463,44.548849 Z M142.54684,40.2347704 L142.54684,45.1561236 L141.682081,45.1561236 L141.682081,40.2347704 L142.54684,40.2347704 Z M142.741167,38.6898639 C142.741167,38.7740731 142.724164,38.8526131 142.690156,38.9254865 C142.656149,38.9983598 142.610806,39.0631351 142.554127,39.1198143 C142.497448,39.1764936 142.431863,39.2210266 142.35737,39.2534147 C142.282877,39.2858029 142.203527,39.3019967 142.119318,39.3019967 C142.035109,39.3019967 141.956569,39.2858029 141.883696,39.2534147 C141.810822,39.2210266 141.746047,39.1764936 141.689368,39.1198143 C141.632689,39.0631351 141.588156,38.9983598 141.555768,38.9254865 C141.523379,38.8526131 141.507186,38.7740731 141.507186,38.6898639 C141.507186,38.6056548 141.523379,38.5254953 141.555768,38.4493832 C141.588156,38.3732711 141.632689,38.3068764 141.689368,38.2501971 C141.746047,38.1935179 141.810822,38.1489849 141.883696,38.1165967 C141.956569,38.0842086 142.035109,38.0680148 142.119318,38.0680148 C142.203527,38.0680148 142.282877,38.0842086 142.35737,38.1165967 C142.431863,38.1489849 142.497448,38.1935179 142.554127,38.2501971 C142.610806,38.3068764 142.656149,38.3732711 142.690156,38.4493832 C142.724164,38.5254953 142.741167,38.6056548 142.741167,38.6898639 L142.741167,38.6898639 Z M147.429327,41.1092458 C147.403417,41.1448728 147.377507,41.1724023 147.351596,41.1918352 C147.325686,41.2112681 147.28844,41.2209844 147.239858,41.2209844 C147.191275,41.2209844 147.138645,41.2007421 147.081966,41.1602569 C147.025287,41.1197717 146.953224,41.0752387 146.865776,41.0266565 C146.778328,40.9780743 146.672259,40.9335413 146.547565,40.8930561 C146.42287,40.8525709 146.269839,40.8323286 146.088465,40.8323286 C145.848793,40.8323286 145.636654,40.8752423 145.452041,40.9610708 C145.267429,41.0468994 145.112778,41.1707822 144.988083,41.3327229 C144.863389,41.4946636 144.769465,41.6906089 144.706308,41.9205647 C144.643151,42.1505205 144.611573,42.4080023 144.611573,42.6930179 C144.611573,42.9909888 144.64558,43.2557579 144.713595,43.4873331 C144.78161,43.7189083 144.877154,43.9132342 145.000229,44.0703167 C145.123304,44.2273991 145.273097,44.3472335 145.449612,44.4298232 C145.626127,44.512413 145.824502,44.5537072 146.044741,44.5537072 C146.255264,44.5537072 146.428538,44.5286068 146.564568,44.4784052 C146.700598,44.4282036 146.813955,44.3723349 146.904642,44.3107974 C146.995329,44.2492599 147.06982,44.1933912 147.128119,44.1431896 C147.186418,44.092988 147.244715,44.0678876 147.303014,44.0678876 C147.377507,44.0678876 147.432566,44.0954171 147.468193,44.1504769 L147.711103,44.4662597 C147.497341,44.7286036 147.230143,44.9205005 146.9095,45.041956 C146.588858,45.1634115 146.250407,45.2241384 145.894137,45.2241384 C145.58645,45.2241384 145.300629,45.16746 145.036665,45.0541015 C144.772702,44.940743 144.543559,44.7763757 144.349231,44.5609945 C144.154902,44.3456134 144.00187,44.0808443 143.890131,43.7666794 C143.778392,43.4525144 143.722523,43.0946309 143.722523,42.6930179 C143.722523,42.327032 143.773534,41.988581 143.875556,41.6776548 C143.977579,41.3667287 144.126562,41.0987209 144.32251,40.8736233 C144.518459,40.6485257 144.760556,40.4728227 145.048811,40.346509 C145.337065,40.2201952 145.667419,40.1570393 146.039883,40.1570393 C146.383197,40.1570393 146.687641,40.212908 146.953224,40.3246471 C147.218807,40.4363862 147.453617,40.594276 147.657662,40.7983213 L147.429327,41.1092458 Z M150.558006,40.1570393 C150.852738,40.1570393 151.124794,40.2064305 151.374183,40.3052143 C151.623572,40.4039981 151.838949,40.5465038 152.020323,40.7327356 C152.201697,40.9189674 152.343393,41.1489197 152.445415,41.4225995 C152.547438,41.6962793 152.598448,42.0080105 152.598448,42.3578024 C152.598448,42.4938326 152.583874,42.584518 152.554725,42.6298614 C152.525575,42.6752048 152.470516,42.6978761 152.389546,42.6978761 L149.115121,42.6978761 C149.121599,43.0088023 149.163703,43.2792392 149.241435,43.509195 C149.319166,43.7391508 149.426045,43.9310476 149.562076,44.0848913 C149.698106,44.2387349 149.860044,44.3537111 150.047895,44.4298232 C150.235746,44.5059354 150.446266,44.5439908 150.679461,44.5439908 C150.896461,44.5439908 151.0835,44.5188904 151.240582,44.4686888 C151.397665,44.4184872 151.532883,44.3642379 151.646242,44.3059392 C151.7596,44.2476406 151.854334,44.1933912 151.930446,44.1431896 C152.006559,44.092988 152.072144,44.0678876 152.127203,44.0678876 C152.198457,44.0678876 152.253516,44.0954171 152.292382,44.1504769 L152.535292,44.4662597 C152.428411,44.5958123 152.30048,44.7083594 152.151494,44.8039044 C152.002509,44.8994494 151.843,44.9779894 151.672962,45.0395269 C151.502924,45.1010644 151.327221,45.1472168 151.145848,45.1779855 C150.964474,45.2087542 150.784723,45.2241384 150.606588,45.2241384 C150.266512,45.2241384 149.953162,45.1666503 149.666527,45.0516724 C149.379892,44.9366945 149.132126,44.7682787 148.923223,44.5464199 C148.714319,44.3245612 148.551571,44.0500758 148.434974,43.7229556 C148.318377,43.3958354 148.260079,43.0201386 148.260079,42.595854 C148.260079,42.2525397 148.312709,41.931902 148.41797,41.6339311 C148.523232,41.3359602 148.674644,41.0776687 148.872212,40.8590487 C149.069779,40.6404288 149.311067,40.4687742 149.596083,40.3440799 C149.881099,40.2193855 150.201736,40.1570393 150.558006,40.1570393 L150.558006,40.1570393 Z M150.577439,40.7934631 C150.159632,40.7934631 149.830897,40.9141071 149.591225,41.1553987 C149.351552,41.3966903 149.202569,41.7310929 149.144271,42.1586163 L151.821137,42.1586163 C151.821137,41.9578098 151.793607,41.7740099 151.738548,41.607211 C151.683488,41.4404121 151.602519,41.296287 151.495638,41.1748315 C151.388757,41.053376 151.258397,40.9594518 151.104553,40.8930561 C150.950709,40.8266604 150.775006,40.7934631 150.577439,40.7934631 L150.577439,40.7934631 Z M154.935241,40.2347704 L155.615389,40.2347704 C155.686642,40.2347704 155.74494,40.2525837 155.790284,40.2882106 C155.835627,40.3238376 155.866395,40.3659415 155.882589,40.4145237 L156.825079,43.5820679 C156.85099,43.6986652 156.875281,43.8112123 156.897952,43.9197126 C156.920624,44.0282128 156.940057,44.1375212 156.956251,44.2476408 C156.982161,44.1375212 157.01131,44.0282128 157.043698,43.9197126 C157.076086,43.8112123 157.110094,43.6986652 157.14572,43.5820679 L158.185375,40.3950909 C158.201569,40.3465087 158.229908,40.3060242 158.270393,40.273636 C158.310878,40.2412479 158.361889,40.2250541 158.423426,40.2250541 L158.797507,40.2250541 C158.862284,40.2250541 158.915723,40.2412479 158.957828,40.273636 C158.999932,40.3060242 159.029081,40.3465087 159.045275,40.3950909 L160.060638,43.5820679 C160.096265,43.6954264 160.127843,43.8071638 160.155373,43.9172835 C160.182903,44.0274032 160.209623,44.1359018 160.235534,44.2427827 C160.251728,44.1359018 160.27278,44.0241644 160.29869,43.9075671 C160.324601,43.7909698 160.35213,43.6824711 160.381279,43.5820679 L161.343202,40.4145237 C161.359396,40.3627027 161.390165,40.3197891 161.435508,40.2857815 C161.480851,40.251774 161.534291,40.2347704 161.595829,40.2347704 L162.246827,40.2347704 L160.653338,45.1561236 L159.968333,45.1561236 C159.884124,45.1561236 159.825826,45.1010646 159.793438,44.9909449 L158.705202,41.6533639 C158.679291,41.5788711 158.658239,41.5035698 158.642045,41.4274577 C158.625851,41.3513456 158.609657,41.2760443 158.593463,41.2015516 C158.577269,41.2760443 158.561075,41.3521553 158.544881,41.4298868 C158.528687,41.5076183 158.507635,41.5837293 158.481725,41.6582221 L157.378914,44.9909449 C157.343287,45.1010646 157.276892,45.1561236 157.179728,45.1561236 L156.528729,45.1561236 L154.935241,40.2347704 Z M164.967417,40.1570393 C165.262149,40.1570393 165.534205,40.2064305 165.783594,40.3052143 C166.032983,40.4039981 166.248361,40.5465038 166.429734,40.7327356 C166.611108,40.9189674 166.752804,41.1489197 166.854826,41.4225995 C166.956849,41.6962793 167.00786,42.0080105 167.00786,42.3578024 C167.00786,42.4938326 166.993285,42.584518 166.964136,42.6298614 C166.934987,42.6752048 166.879927,42.6978761 166.798957,42.6978761 L163.524533,42.6978761 C163.53101,43.0088023 163.573114,43.2792392 163.650846,43.509195 C163.728577,43.7391508 163.835457,43.9310476 163.971487,44.0848913 C164.107517,44.2387349 164.269455,44.3537111 164.457306,44.4298232 C164.645158,44.5059354 164.855677,44.5439908 165.088872,44.5439908 C165.305872,44.5439908 165.492911,44.5188904 165.649994,44.4686888 C165.807076,44.4184872 165.942295,44.3642379 166.055653,44.3059392 C166.169012,44.2476406 166.263745,44.1933912 166.339858,44.1431896 C166.41597,44.092988 166.481555,44.0678876 166.536615,44.0678876 C166.607868,44.0678876 166.662927,44.0954171 166.701793,44.1504769 L166.944703,44.4662597 C166.837822,44.5958123 166.709891,44.7083594 166.560906,44.8039044 C166.41192,44.8994494 166.252411,44.9779894 166.082373,45.0395269 C165.912335,45.1010644 165.736632,45.1472168 165.555259,45.1779855 C165.373885,45.2087542 165.194134,45.2241384 165.015999,45.2241384 C164.675924,45.2241384 164.362573,45.1666503 164.075938,45.0516724 C163.789303,44.9366945 163.541537,44.7682787 163.332634,44.5464199 C163.12373,44.3245612 162.960982,44.0500758 162.844385,43.7229556 C162.727788,43.3958354 162.66949,43.0201386 162.66949,42.595854 C162.66949,42.2525397 162.72212,41.931902 162.827381,41.6339311 C162.932643,41.3359602 163.084055,41.0776687 163.281623,40.8590487 C163.47919,40.6404288 163.720478,40.4687742 164.005494,40.3440799 C164.29051,40.2193855 164.611147,40.1570393 164.967417,40.1570393 L164.967417,40.1570393 Z M164.98685,40.7934631 C164.569043,40.7934631 164.240308,40.9141071 164.000636,41.1553987 C163.760964,41.3966903 163.61198,41.7310929 163.553682,42.1586163 L166.230548,42.1586163 C166.230548,41.9578098 166.203019,41.7740099 166.147959,41.607211 C166.092899,41.4404121 166.01193,41.296287 165.905049,41.1748315 C165.798168,41.053376 165.667808,40.9594518 165.513964,40.8930561 C165.36012,40.8266604 165.184417,40.7934631 164.98685,40.7934631 L164.98685,40.7934631 Z M169.985934,45.1561236 L169.985934,40.2347704 L170.500903,40.2347704 C170.623978,40.2347704 170.701708,40.2946876 170.734096,40.4145237 L170.797253,40.9197762 C170.978627,40.696298 171.181859,40.5133078 171.406957,40.3707999 C171.632054,40.2282921 171.893585,40.1570393 172.191555,40.1570393 C172.525153,40.1570393 172.79478,40.2493441 173.000445,40.4339565 C173.20611,40.6185689 173.354283,40.8679538 173.44497,41.1821188 C173.512985,41.003984 173.602861,40.8501427 173.7146,40.7205901 C173.826339,40.5910375 173.951841,40.4841583 174.09111,40.3999491 C174.230379,40.31574 174.378553,40.2542034 174.535635,40.2153377 C174.692718,40.1764719 174.852227,40.1570393 175.014168,40.1570393 C175.273273,40.1570393 175.504035,40.1983336 175.706461,40.2809233 C175.908887,40.3635131 176.080541,40.4841571 176.221429,40.642859 C176.362318,40.8015608 176.470007,40.9966965 176.5445,41.2282717 C176.618992,41.4598468 176.656238,41.7246159 176.656238,42.0225868 L176.656238,45.1561236 L175.791479,45.1561236 L175.791479,42.0225868 C175.791479,41.6371679 175.707271,41.3448694 175.538853,41.1456823 C175.370435,40.9464953 175.125908,40.8469032 174.805265,40.8469032 C174.662757,40.8469032 174.527539,40.8720036 174.399606,40.9222053 C174.271673,40.9724069 174.159126,41.0460888 174.061961,41.1432532 C173.964797,41.2404176 173.887876,41.362681 173.831197,41.5100471 C173.774518,41.6574131 173.746178,41.828258 173.746178,42.0225868 L173.746178,45.1561236 L172.881419,45.1561236 L172.881419,42.0225868 C172.881419,41.6274515 172.80207,41.3327239 172.643368,41.138395 C172.484666,40.9440662 172.253094,40.8469032 171.948646,40.8469032 C171.734884,40.8469032 171.536509,40.9043913 171.353516,41.0193692 C171.170523,41.1343471 171.002917,41.2906175 170.850693,41.4881852 L170.850693,45.1561236 L169.985934,45.1561236 Z M181.577591,45.1561236 L181.193794,45.1561236 C181.109585,45.1561236 181.04157,45.1431686 180.989749,45.117258 C180.937928,45.0913475 180.903921,45.0362885 180.887727,44.9520794 L180.790563,44.4954089 C180.661011,44.6120062 180.534699,44.7164564 180.411624,44.8087626 C180.288549,44.9010688 180.158999,44.9787991 180.022968,45.041956 C179.886938,45.1051129 179.742003,45.1528847 179.58816,45.1852728 C179.434316,45.2176609 179.263471,45.2338548 179.07562,45.2338548 C178.88453,45.2338548 178.705588,45.2071349 178.538789,45.1536945 C178.37199,45.1002541 178.227056,45.0200946 178.103981,44.9132138 C177.980906,44.8063329 177.882933,44.6711145 177.81006,44.5075544 C177.737186,44.3439943 177.70075,44.150478 177.70075,43.9269999 C177.70075,43.732671 177.75419,43.5456323 177.861071,43.3658782 C177.967952,43.186124 178.140416,43.0266148 178.378469,42.8873458 C178.616522,42.7480768 178.928253,42.6339103 179.313672,42.5448429 C179.69909,42.4557756 180.170331,42.404765 180.727407,42.3918097 L180.727407,42.0080122 C180.727407,41.6258322 180.645628,41.3367724 180.482068,41.1408241 C180.318508,40.9448759 180.07641,40.8469032 179.755768,40.8469032 C179.545245,40.8469032 179.367922,40.873623 179.223795,40.9270635 C179.079668,40.9805039 178.954975,41.0404211 178.849714,41.1068167 C178.744452,41.1732124 178.653767,41.2331296 178.577655,41.28657 C178.501543,41.3400104 178.426241,41.3667303 178.351749,41.3667303 C178.29345,41.3667303 178.242439,41.3513461 178.198716,41.3205774 C178.154992,41.2898087 178.120175,41.2517532 178.094264,41.2064098 L177.938802,40.9294926 C178.210862,40.6671486 178.503971,40.4712033 178.818136,40.3416508 C179.132301,40.2120982 179.480468,40.1473229 179.862648,40.1473229 C180.137947,40.1473229 180.382474,40.1926656 180.596236,40.2833524 C180.809997,40.3740392 180.989749,40.500351 181.135495,40.6622917 C181.281242,40.8242324 181.39136,41.0201777 181.465853,41.2501335 C181.540345,41.4800893 181.577591,41.732713 181.577591,42.0080122 L181.577591,45.1561236 Z M179.333104,44.6265802 C179.485329,44.6265802 179.624596,44.6111961 179.750909,44.5804273 C179.877223,44.5496586 179.996248,44.5059353 180.107987,44.449256 C180.219726,44.3925768 180.326605,44.323753 180.428628,44.2427827 C180.53065,44.1618123 180.630242,44.0695075 180.727407,43.9658654 L180.727407,42.940786 C180.329033,42.9537412 179.990582,42.9853192 179.712044,43.0355208 C179.433506,43.0857224 179.206792,43.1513074 179.031896,43.2322778 C178.857,43.3132481 178.729879,43.4087917 178.650528,43.5189114 C178.571177,43.629031 178.531502,43.7521041 178.531502,43.8881343 C178.531502,44.0176869 178.552554,44.1294243 178.594659,44.2233499 C178.636763,44.3172755 178.693442,44.3941961 178.764695,44.4541142 C178.835949,44.5140323 178.920157,44.5577556 179.017322,44.5852855 C179.114486,44.6128154 179.219746,44.6265802 179.333104,44.6265802 L179.333104,44.6265802 Z M183.788071,38 L183.788071,42.2120565 L184.011548,42.2120565 C184.076324,42.2120565 184.129764,42.2031499 184.171868,42.1853364 C184.213973,42.1675229 184.260935,42.1310868 184.312756,42.076027 L185.867379,40.4096655 C185.915961,40.3578445 185.964543,40.3157405 186.013125,40.2833524 C186.061707,40.2509643 186.126482,40.2347704 186.207453,40.2347704 L186.99448,40.2347704 L185.182373,42.1634745 C185.13703,42.2185343 185.092497,42.2671158 185.048773,42.3092204 C185.005049,42.351325 184.955658,42.3885708 184.900598,42.4209589 C184.958896,42.4598247 185.011526,42.5043577 185.058489,42.5545593 C185.105452,42.6047609 185.149985,42.662249 185.19209,42.7270253 L187.115935,45.1561236 L186.338624,45.1561236 C186.26737,45.1561236 186.206643,45.1423589 186.156442,45.1148289 C186.10624,45.087299 186.058468,45.0443854 186.013125,44.9860867 L184.395345,42.9699351 C184.346763,42.90192 184.298182,42.857387 184.249599,42.8363347 C184.201017,42.8152824 184.128145,42.8047565 184.030981,42.8047565 L183.788071,42.8047565 L183.788071,45.1561236 L182.918454,45.1561236 L182.918454,38 L183.788071,38 Z M189.928831,40.1570393 C190.223563,40.1570393 190.49562,40.2064305 190.745008,40.3052143 C190.994397,40.4039981 191.209775,40.5465038 191.391148,40.7327356 C191.572522,40.9189674 191.714218,41.1489197 191.816241,41.4225995 C191.918263,41.6962793 191.969274,42.0080105 191.969274,42.3578024 C191.969274,42.4938326 191.954699,42.584518 191.92555,42.6298614 C191.896401,42.6752048 191.841342,42.6978761 191.760371,42.6978761 L188.485947,42.6978761 C188.492424,43.0088023 188.534528,43.2792392 188.61226,43.509195 C188.689991,43.7391508 188.796871,43.9310476 188.932901,44.0848913 C189.068931,44.2387349 189.230869,44.3537111 189.418721,44.4298232 C189.606572,44.5059354 189.817092,44.5439908 190.050286,44.5439908 C190.267287,44.5439908 190.454325,44.5188904 190.611408,44.4686888 C190.76849,44.4184872 190.903709,44.3642379 191.017067,44.3059392 C191.130426,44.2476406 191.22516,44.1933912 191.301272,44.1431896 C191.377384,44.092988 191.442969,44.0678876 191.498029,44.0678876 C191.569283,44.0678876 191.624342,44.0954171 191.663207,44.1504769 L191.906117,44.4662597 C191.799236,44.5958123 191.671305,44.7083594 191.52232,44.8039044 C191.373334,44.8994494 191.213825,44.9779894 191.043787,45.0395269 C190.87375,45.1010644 190.698047,45.1472168 190.516673,45.1779855 C190.335299,45.2087542 190.155548,45.2241384 189.977413,45.2241384 C189.637338,45.2241384 189.323987,45.1666503 189.037352,45.0516724 C188.750717,44.9366945 188.502952,44.7682787 188.294048,44.5464199 C188.085145,44.3245612 187.922397,44.0500758 187.805799,43.7229556 C187.689202,43.3958354 187.630904,43.0201386 187.630904,42.595854 C187.630904,42.2525397 187.683534,41.931902 187.788796,41.6339311 C187.894057,41.3359602 188.045469,41.0776687 188.243037,40.8590487 C188.440605,40.6404288 188.681893,40.4687742 188.966908,40.3440799 C189.251924,40.2193855 189.572562,40.1570393 189.928831,40.1570393 L189.928831,40.1570393 Z M189.948264,40.7934631 C189.530457,40.7934631 189.201722,40.9141071 188.96205,41.1553987 C188.722378,41.3966903 188.573395,41.7310929 188.515096,42.1586163 L191.191962,42.1586163 C191.191962,41.9578098 191.164433,41.7740099 191.109373,41.607211 C191.054313,41.4404121 190.973344,41.296287 190.866463,41.1748315 C190.759582,41.053376 190.629222,40.9594518 190.475378,40.8930561 C190.321535,40.8266604 190.145832,40.7934631 189.948264,40.7934631 L189.948264,40.7934631 Z M192.790309,44.621722 C192.790309,44.5375128 192.805693,44.4581631 192.836462,44.3836704 C192.867231,44.3091776 192.909335,44.2444023 192.962775,44.1893425 C193.016215,44.1342827 193.080181,44.0905593 193.154674,44.0581712 C193.229167,44.025783 193.308516,44.0095892 193.392725,44.0095892 C193.476935,44.0095892 193.556284,44.025783 193.630777,44.0581712 C193.70527,44.0905593 193.770045,44.1342827 193.825105,44.1893425 C193.880165,44.2444023 193.923078,44.3091776 193.953847,44.3836704 C193.984616,44.4581631 194,44.5375128 194,44.621722 C194,44.70917 193.984616,44.7893294 193.953847,44.8622027 C193.923078,44.935076 193.880165,44.9990417 193.825105,45.0541015 C193.770045,45.1091613 193.70527,45.152075 193.630777,45.1828437 C193.556284,45.2136124 193.476935,45.2289966 193.392725,45.2289966 C193.308516,45.2289966 193.229167,45.2136124 193.154674,45.1828437 C193.080181,45.152075 193.016215,45.1091613 192.962775,45.0541015 C192.909335,44.9990417 192.867231,44.935076 192.836462,44.8622027 C192.805693,44.7893294 192.790309,44.70917 192.790309,44.621722 L192.790309,44.621722 Z" id="Quantify-the-impact"></path>
        </g>
    </g>
</svg>