<?xml version="1.0" encoding="UTF-8" standalone="no"?>
<svg width="21px" height="17px" viewBox="0 0 21 17" version="1.1" xmlns="http://www.w3.org/2000/svg" xmlns:xlink="http://www.w3.org/1999/xlink">
    <!-- Generator: Sketch 39.1 (31720) - http://www.bohemiancoding.com/sketch -->
    <title>twitter-logo-silhouette</title>
    <desc>Created with Sketch.</desc>
    <defs></defs>
    <g id="Page-1" stroke="none" stroke-width="1" fill="none" fill-rule="evenodd">
        <g id="Splash-page---white-frame-Copy-3" transform="translate(-2798.000000, -734.000000)" fill="#FFFFFF">
            <g id="browser-window-copy-2" transform="translate(1457.000000, 614.000000)">
                <g id="social-icons" transform="translate(1299.000000, 120.000000)">
                    <g id="twitter-logo-silhouette" transform="translate(42.000000, 0.000000)">
                        <g id="Capa_1">
                            <path d="M20.8915663,2.02286345 C20.1226406,2.36358032 19.2975944,2.5946506 18.4307309,2.69781124 C19.3158574,2.16777309 19.9933996,1.32705823 20.3145221,0.328359438 C19.484253,0.819208835 18.5677892,1.17562851 17.5912791,1.36884137 C16.8093133,0.534646586 15.6970422,0.0150542169 14.4633474,0.0150542169 C12.0965241,0.0150542169 10.1774699,1.93410843 10.1774699,4.29963454 C10.1774699,4.63512851 10.2153273,4.96280522 10.2884478,5.27614458 C6.72711847,5.09726908 3.56918072,3.39102209 1.45561647,0.798317269 C1.08615663,1.43018474 0.875977912,2.16644177 0.875977912,2.95236747 C0.875977912,4.43932129 1.63316064,5.7513253 2.78199197,6.51891968 C2.07963253,6.49543373 1.41905622,6.30222088 0.840748996,5.98106426 L0.840748996,6.03459036 C0.840748996,8.11029719 2.31855422,9.84265863 4.27806024,10.2369357 C3.91904618,10.3335422 3.54047189,10.3870683 3.14882329,10.3870683 C2.87207831,10.3870683 2.60444779,10.3596566 2.34204016,10.3074277 C2.88771285,12.0110803 4.4699759,13.2499639 6.34465261,13.2839297 C4.87859036,14.432761 3.03002811,15.1155261 1.02221888,15.1155261 C0.676279116,15.1155261 0.335528112,15.0946345 3.41365467e-05,15.0567771 C1.8968996,16.2748032 4.14885341,16.9849799 6.56920281,16.9849799 C14.4529699,16.9849799 18.7623675,10.4549659 18.7623675,4.79181526 L18.747996,4.23699398 C19.590008,3.63642972 20.3184478,2.8818755 20.8915663,2.02286345 L20.8915663,2.02286345 Z" id="Shape"></path>
                        </g>
                    </g>
                </g>
            </g>
        </g>
    </g>
</svg>