<?xml version="1.0" encoding="UTF-8" standalone="no"?>
<svg width="19px" height="15px" viewBox="0 0 19 15" version="1.1" xmlns="http://www.w3.org/2000/svg" xmlns:xlink="http://www.w3.org/1999/xlink">
    <!-- Generator: Sketch 39.1 (31720) - http://www.bohemiancoding.com/sketch -->
    <title>“</title>
    <desc>Created with Sketch.</desc>
    <defs></defs>
    <g id="Page-1" stroke="none" stroke-width="1" fill="none" fill-rule="evenodd">
        <g id="Splash-page---white-frame-Copy-3" transform="translate(-2249.000000, -1182.000000)" fill="#FFFFFF">
            <g id="browser-window-copy-2" transform="translate(1457.000000, 614.000000)">
                <path d="M806.007812,572.476562 C805.039058,573.617193 804.507813,574.843743 804.414062,576.15625 C805.351567,575.218745 806.35937,574.75 807.4375,574.75 C808.328129,574.75 809.015623,574.972654 809.5,575.417969 C809.984377,575.863283 810.226562,576.507808 810.226562,577.351562 C810.226562,578.210942 810.011721,579.007809 809.582031,579.742188 C809.152342,580.476566 808.56641,581.062498 807.824219,581.5 C807.082028,581.937502 806.281254,582.15625 805.421875,582.15625 C803.312489,582.15625 802.257812,581.000012 802.257812,578.6875 C802.257812,577.359368 802.546872,576.066413 803.125,574.808594 C803.703128,573.550775 804.531245,572.414068 805.609375,571.398438 C806.687505,570.382807 807.953118,569.546878 809.40625,568.890625 L809.664062,569.664062 C808.195305,570.398441 806.976567,571.335932 806.007812,572.476562 L806.007812,572.476562 Z M796.574219,572.476562 C795.628902,573.617193 795.109375,574.843743 795.015625,576.15625 C795.906254,575.218745 796.898432,574.75 797.992188,574.75 C798.898442,574.75 799.589841,574.972654 800.066406,575.417969 C800.542971,575.863283 800.78125,576.507808 800.78125,577.351562 C800.78125,578.210942 800.566408,579.007809 800.136719,579.742188 C799.707029,580.476566 799.121097,581.062498 798.378906,581.5 C797.636715,581.937502 796.835942,582.15625 795.976562,582.15625 C793.867177,582.15625 792.8125,581.000012 792.8125,578.6875 C792.8125,577.343743 793.10156,576.046881 793.679688,574.796875 C794.257815,573.546869 795.085932,572.414068 796.164062,571.398438 C797.242193,570.382807 798.507805,569.546878 799.960938,568.890625 L800.195312,569.664062 C798.726555,570.398441 797.519536,571.335932 796.574219,572.476562 L796.574219,572.476562 Z" id="“"></path>
            </g>
        </g>
    </g>
</svg>