<?xml version="1.0" encoding="UTF-8" standalone="no"?>
<svg width="163px" height="25px" viewBox="0 0 163 25" version="1.1" xmlns="http://www.w3.org/2000/svg" xmlns:xlink="http://www.w3.org/1999/xlink">
    <!-- Generator: Sketch 39.1 (31720) - http://www.bohemiancoding.com/sketch -->
    <title>Tomorrow</title>
    <desc>Created with Sketch.</desc>
    <defs></defs>
    <g id="Page-1" stroke="none" stroke-width="1" fill="none" fill-rule="evenodd">
        <g id="logo" transform="translate(0.000000, -1.000000)" fill="#FFFFFF">
            <g id="Logo-and-tagline">
                <path d="M16.7695312,3.39648438 L14.4140625,3.4140625 L14.0800781,3.4140625 L14.0800781,20.7636719 C14.0800781,22.0527408 14.4374964,22.925779 15.1523438,23.3828125 C15.6445337,23.6875015 16.6113209,23.9218742 18.0527344,24.0859375 L18.0527344,24.71875 C18.0527344,24.8125005 18.0410157,24.9062495 18.0175781,25 L6.38085938,25 L6.34570312,24.0859375 C6.81445547,23.9218742 7.28613044,23.7753913 7.76074219,23.6464844 C8.23535394,23.5175775 8.66015437,23.3476573 9.03515625,23.1367188 C9.87891047,22.6679664 10.3007812,21.8769587 10.3007812,20.7636719 L10.3007812,3.4140625 L7.734375,3.4140625 C6.67968223,3.4140625 5.87109656,3.45507771 5.30859375,3.53710938 C4.74609094,3.61914104 4.29199392,3.82128745 3.94628906,4.14355469 C3.60058421,4.46582192 3.28418112,4.83788852 2.99707031,5.25976562 C2.7099595,5.68164273 2.44043095,6.11816181 2.18847656,6.56933594 C1.93652218,7.02051007 1.6757826,7.41015461 1.40625,7.73828125 L0.59765625,7.73828125 L1.03710938,2.0078125 C4.02540557,2.12500059 7.99802209,2.18359375 12.9550781,2.18359375 C17.9121342,2.18359375 21.4042867,2.11328195 23.4316406,1.97265625 L23.9941406,7.75585938 L23.1503906,7.75585938 C22.880858,7.42773273 22.6259778,7.03808819 22.3857422,6.58691406 C22.1455066,6.13573993 21.884767,5.69922086 21.6035156,5.27734375 C20.9238247,4.24608859 20.2207068,3.67187559 19.4941406,3.5546875 C18.8261685,3.44921822 17.9179745,3.39648438 16.7695312,3.39648438 L16.7695312,3.39648438 Z M27.0043527,13.2226562 C26.7699765,13.9843788 26.6527902,14.8749949 26.6527902,15.8945312 C26.6527902,16.9140676 26.7699765,17.9042921 27.0043527,18.8652344 C27.2387288,19.8261767 27.5785692,20.6874962 28.0238839,21.4492188 C29.0082638,23.1367272 30.2562982,23.9804688 31.7680245,23.9804688 C33.2445944,23.9804688 34.3871611,23.429693 35.1957589,22.328125 C35.9457627,21.3085887 36.3207589,19.92579 36.3207589,18.1796875 C36.3207589,15.8710822 35.8637322,13.9375078 34.9496652,12.3789062 C34.0004417,10.7265542 32.7641259,9.90039062 31.2406808,9.90039062 C29.0961388,9.90039062 27.6840436,11.0078014 27.0043527,13.2226562 L27.0043527,13.2226562 Z M23.1371652,16.984375 C23.1371652,14.5468628 23.9574695,12.5429766 25.5981027,10.9726562 C27.1801418,9.47264875 29.0961383,8.72265625 31.3461495,8.72265625 C33.7485053,8.72265625 35.7348136,9.46093012 37.3051339,10.9375 C38.9574859,12.4843827 39.7836495,14.4941283 39.7836495,16.9667969 C39.7836495,19.4394655 38.9633453,21.4726483 37.322712,23.0664062 C35.7641105,24.5898514 33.8363954,25.3515625 31.5395089,25.3515625 C29.2426224,25.3515625 27.2856108,24.5781327 25.6684152,23.03125 C23.9809067,21.4257732 23.1371652,19.4101684 23.1371652,16.984375 L23.1371652,16.984375 Z M61.1805803,24.1210938 L61.1454241,25 L52.3563616,25 C52.332924,24.8710931 52.3212053,24.7187509 52.3212053,24.5429688 L52.3212053,24.1210938 C52.4618311,24.0273433 52.6581182,23.9541018 52.9100725,23.9013672 C53.1620269,23.8486325 53.4169072,23.7871097 53.674721,23.7167969 C54.3075366,23.5410147 54.6825329,23.2832048 54.799721,22.9433594 C55.0575348,22.4394506 55.1864397,21.7832072 55.1864397,20.9746094 L55.1864397,14.8574219 C55.1864397,13.4863213 55.0311678,12.5400417 54.7206194,12.0185547 C54.410071,11.4970677 54.067301,11.1337901 53.6922991,10.9287109 C53.3172972,10.7236318 52.8719892,10.6210938 52.3563616,10.6210938 C51.840734,10.6210938 51.3837073,10.6884759 50.9852678,10.8232422 C50.5868284,10.9580085 50.2118321,11.1367176 49.8602678,11.359375 C49.2860462,11.7226581 48.6473807,12.2968711 47.9442522,13.0820312 L47.9442522,20.8691406 C47.9442522,22.1699284 48.0731572,22.9257802 48.330971,23.1367188 C48.5887848,23.3476573 48.8465947,23.5029292 49.1044085,23.6025391 C49.3622223,23.7021489 49.6288212,23.787109 49.9042132,23.8574219 C50.1796052,23.9277347 50.4169075,24.0156245 50.6161272,24.1210938 L50.580971,25 L41.9149553,25 C41.9032365,24.941406 41.8973772,24.8828128 41.8973772,24.8242188 L41.8973772,24.1210938 C42.0497217,24.0273433 42.2606571,23.9482425 42.5301897,23.8837891 C42.7997223,23.8193356 43.0692509,23.7402348 43.3387835,23.6464844 C43.9950368,23.4121082 44.370033,23.0664085 44.4637835,22.609375 C44.5926904,22.1289038 44.6571428,21.6250026 44.6571428,21.0976562 L44.6571428,12.2734375 C44.3055786,11.6406218 43.3387914,11.1191427 41.7567522,10.7089844 L41.8094866,10.1113281 L46.7137835,8.91601562 L47.7860491,8.91601562 L47.9442522,11.4472656 C49.1981647,10.076165 50.5047923,9.22656414 51.8641741,8.8984375 C52.3798017,8.78124941 52.9481554,8.72265625 53.5692522,8.72265625 C55.8192635,8.72265625 57.3426857,9.66600619 58.1395647,11.5527344 C58.9950378,10.6152297 59.704015,9.98242352 60.2665178,9.65429688 C61.2860542,9.05663764 62.2704194,8.7578125 63.2196428,8.7578125 C64.1688663,8.7578125 64.9510851,8.84277259 65.5663225,9.01269531 C66.18156,9.18261804 66.7176874,9.44335762 67.174721,9.79492188 C68.1356633,10.521488 68.686439,11.6288988 68.8270647,13.1171875 C68.9208152,14.1718803 68.9676897,15.2792911 68.9676897,16.4394531 L68.9676897,21.0449219 C68.9676897,21.6542999 68.999916,22.1259749 69.0643694,22.4599609 C69.1288229,22.793947 69.2547982,23.0400383 69.4422991,23.1982422 C69.6298,23.3564461 69.8436651,23.4853511 70.0839007,23.5849609 C70.3241362,23.6845708 70.5702275,23.7724606 70.8221819,23.8486328 C71.0741363,23.9248051 71.2938607,24.0156245 71.4813616,24.1210938 L71.4462053,25 L62.9911272,25 C62.9676896,24.8710931 62.955971,24.7187509 62.955971,24.5429688 L62.955971,24.1210938 C63.1434719,24.0156245 63.3719853,23.9277347 63.6415178,23.8574219 C63.9110504,23.787109 64.1747197,23.6992193 64.4325335,23.59375 C65.0770679,23.3593738 65.4462049,23.0195335 65.5399553,22.5742188 C65.6337058,22.07031 65.6805803,21.5605495 65.6805803,21.0449219 L65.6805803,14.0664062 C65.6805803,12.9648382 65.4051925,12.1123077 64.8544085,11.5087891 C64.3036245,10.9052704 63.4950388,10.6035156 62.4286272,10.6035156 C61.0575266,10.6035156 59.7040245,11.3359302 58.3680803,12.8007812 C58.4383932,13.5273474 58.4735491,14.8281156 58.4735491,16.703125 L58.4735491,20.9570312 C58.4735491,21.6367221 58.5028457,22.134764 58.5614397,22.4511719 C58.6200338,22.7675797 58.7518684,23.0078117 58.9569475,23.171875 C59.1620267,23.3359383 59.3963993,23.4707026 59.6600725,23.5761719 C59.9237457,23.6816412 60.1932743,23.7724606 60.4686663,23.8486328 C60.7440583,23.9248051 60.9813606,24.0156245 61.1805803,24.1210938 L61.1805803,24.1210938 Z M77.075558,13.2226562 C76.8411818,13.9843788 76.7239955,14.8749949 76.7239955,15.8945312 C76.7239955,16.9140676 76.8411818,17.9042921 77.075558,18.8652344 C77.3099342,19.8261767 77.6497745,20.6874962 78.0950893,21.4492188 C79.0794692,23.1367272 80.3275036,23.9804688 81.8392299,23.9804688 C83.3157998,23.9804688 84.4583665,23.429693 85.2669643,22.328125 C86.016968,21.3085887 86.3919643,19.92579 86.3919643,18.1796875 C86.3919643,15.8710822 85.9349376,13.9375078 85.0208705,12.3789062 C84.071647,10.7265542 82.8353313,9.90039062 81.3118861,9.90039062 C79.1673442,9.90039062 77.7552489,11.0078014 77.075558,13.2226562 L77.075558,13.2226562 Z M73.2083705,16.984375 C73.2083705,14.5468628 74.0286748,12.5429766 75.669308,10.9726562 C77.2513472,9.47264875 79.1673436,8.72265625 81.4173549,8.72265625 C83.8197107,8.72265625 85.8060189,9.46093012 87.3763393,10.9375 C89.0286913,12.4843827 89.8548549,14.4941283 89.8548549,16.9667969 C89.8548549,19.4394655 89.0345506,21.4726483 87.3939174,23.0664062 C85.8353159,24.5898514 83.9076008,25.3515625 81.6107143,25.3515625 C79.3138278,25.3515625 77.3568161,24.5781327 75.7396205,23.03125 C74.0521121,21.4257732 73.2083705,19.4101684 73.2083705,16.984375 L73.2083705,16.984375 Z M94.5877232,12.2910156 C94.2595966,11.7402316 93.3396839,11.2597677 91.8279576,10.8496094 L91.8631138,10.234375 L96.5388951,8.8984375 L97.5408482,8.8984375 L97.8220982,12.1328125 C98.7947593,10.3632724 99.8670142,9.30859545 101.038895,8.96875 C101.437335,8.86328072 101.838698,8.81054688 102.242997,8.81054688 C102.647296,8.81054688 103.001784,8.86914004 103.306473,8.98632812 C103.611162,9.10351621 103.874831,9.25585844 104.097489,9.44335938 C104.566241,9.84179887 104.800614,10.2753883 104.800614,10.7441406 C104.800614,11.1074237 104.706865,11.4589827 104.519364,11.7988281 C104.1678,12.4902378 103.778155,12.8359375 103.350419,12.8359375 C102.922682,12.8359375 102.603349,12.7421884 102.392411,12.5546875 C102.181472,12.3671866 101.999833,12.1621105 101.847489,11.9394531 C101.695144,11.7167958 101.539872,11.5117197 101.381669,11.3242188 C101.223465,11.1367178 100.992022,11.0429688 100.687333,11.0429688 C100.382644,11.0429688 100.098467,11.1279288 99.8347935,11.2978516 C99.5711203,11.4677743 99.3279587,11.6874987 99.1053013,11.9570312 C98.882644,12.2265638 98.6717086,12.5312483 98.4724888,12.8710938 C98.2732691,13.2109392 98.0740523,13.5449202 97.8748326,13.8730469 L97.8748326,20.4121094 C97.8748326,21.5019586 97.9246368,22.2343731 98.0242466,22.609375 C98.1238565,22.9843769 98.2937767,23.2451165 98.5340123,23.3916016 C98.7742478,23.5380867 99.055495,23.6494137 99.3777623,23.7255859 C99.7000295,23.8017582 100.03694,23.863281 100.388504,23.9101562 C100.740069,23.9570315 101.050612,24.0273433 101.320145,24.1210938 L101.302567,24.6660156 L101.302567,25 L91.8806919,25 C91.8689731,24.9531248 91.8631138,24.882813 91.8631138,24.7890625 L91.8631138,24.1738281 C91.8631138,24.1152341 91.8689731,24.0742189 91.8806919,24.0507812 C92.2791314,23.9335932 92.6453387,23.8398441 92.9793248,23.7695312 C93.3133108,23.6992184 93.5974876,23.5820321 93.8318638,23.4179688 C94.3357726,23.0781233 94.5877232,22.3457088 94.5877232,21.2207031 L94.5877232,12.2910156 Z M108.461216,12.2910156 C108.13309,11.7402316 107.213177,11.2597677 105.701451,10.8496094 L105.736607,10.234375 L110.412388,8.8984375 L111.414341,8.8984375 L111.695591,12.1328125 C112.668253,10.3632724 113.740508,9.30859545 114.912388,8.96875 C115.310828,8.86328072 115.712191,8.81054688 116.11649,8.81054688 C116.520789,8.81054688 116.875277,8.86914004 117.179966,8.98632812 C117.484656,9.10351621 117.748325,9.25585844 117.970982,9.44335938 C118.439734,9.84179887 118.674107,10.2753883 118.674107,10.7441406 C118.674107,11.1074237 118.580358,11.4589827 118.392857,11.7988281 C118.041293,12.4902378 117.651648,12.8359375 117.223912,12.8359375 C116.796175,12.8359375 116.476843,12.7421884 116.265904,12.5546875 C116.054965,12.3671866 115.873327,12.1621105 115.720982,11.9394531 C115.568638,11.7167958 115.413366,11.5117197 115.255162,11.3242188 C115.096958,11.1367178 114.865515,11.0429688 114.560826,11.0429688 C114.256137,11.0429688 113.97196,11.1279288 113.708287,11.2978516 C113.444614,11.4677743 113.201452,11.6874987 112.978795,11.9570312 C112.756137,12.2265638 112.545202,12.5312483 112.345982,12.8710938 C112.146762,13.2109392 111.947546,13.5449202 111.748326,13.8730469 L111.748326,20.4121094 C111.748326,21.5019586 111.79813,22.2343731 111.89774,22.609375 C111.99735,22.9843769 112.16727,23.2451165 112.407506,23.3916016 C112.647741,23.5380867 112.928988,23.6494137 113.251256,23.7255859 C113.573523,23.8017582 113.910433,23.863281 114.261998,23.9101562 C114.613562,23.9570315 114.924106,24.0273433 115.193638,24.1210938 L115.17606,24.6660156 L115.17606,25 L105.754185,25 C105.742466,24.9531248 105.736607,24.882813 105.736607,24.7890625 L105.736607,24.1738281 C105.736607,24.1152341 105.742466,24.0742189 105.754185,24.0507812 C106.152625,23.9335932 106.518832,23.8398441 106.852818,23.7695312 C107.186804,23.6992184 107.470981,23.5820321 107.705357,23.4179688 C108.209266,23.0781233 108.461216,22.3457088 108.461216,21.2207031 L108.461216,12.2910156 Z M123.881585,13.2226562 C123.647209,13.9843788 123.530022,14.8749949 123.530022,15.8945312 C123.530022,16.9140676 123.647209,17.9042921 123.881585,18.8652344 C124.115961,19.8261767 124.455801,20.6874962 124.901116,21.4492188 C125.885496,23.1367272 127.13353,23.9804688 128.645257,23.9804688 C130.121827,23.9804688 131.264393,23.429693 132.072991,22.328125 C132.822995,21.3085887 133.197991,19.92579 133.197991,18.1796875 C133.197991,15.8710822 132.740964,13.9375078 131.826897,12.3789062 C130.877674,10.7265542 129.641358,9.90039062 128.117913,9.90039062 C125.973371,9.90039062 124.561276,11.0078014 123.881585,13.2226562 L123.881585,13.2226562 Z M120.014397,16.984375 C120.014397,14.5468628 120.834702,12.5429766 122.475335,10.9726562 C124.057374,9.47264875 125.97337,8.72265625 128.223382,8.72265625 C130.625737,8.72265625 132.612046,9.46093012 134.182366,10.9375 C135.834718,12.4843827 136.660882,14.4941283 136.660882,16.9667969 C136.660882,19.4394655 135.840577,21.4726483 134.199944,23.0664062 C132.641343,24.5898514 130.713628,25.3515625 128.416741,25.3515625 C126.119855,25.3515625 124.162843,24.5781327 122.545647,23.03125 C120.858139,21.4257732 120.014397,19.4101684 120.014397,16.984375 L120.014397,16.984375 Z M143.063672,11.640625 C143.063672,11.9804704 143.098828,12.2207024 143.169141,12.3613281 L146.421094,20.7285156 L149.637891,12.90625 C149.087107,11.0781159 148.102741,10.1230473 146.684766,10.0410156 L146.719922,9.19726562 L154.489453,9.19726562 C154.512891,9.50195465 154.524609,9.78320184 154.524609,10.0410156 C154.301952,10.1464849 154.073439,10.2343746 153.839062,10.3046875 C153.604686,10.3750004 153.387892,10.4570308 153.188672,10.5507812 C152.731638,10.7617198 152.503125,11.0781229 152.503125,11.5 C152.503125,11.7929702 152.608593,12.2031224 152.819531,12.7304688 L155.684766,20.5878906 L158.426953,13.1875 C158.64961,12.6015596 158.760937,12.1298846 158.760937,11.7724609 C158.760937,11.4150373 158.714063,11.1484384 158.620312,10.9726562 C158.526562,10.7968741 158.388868,10.6621098 158.207227,10.5683594 C158.025585,10.4746089 157.802931,10.3984378 157.539258,10.3398438 C157.275585,10.2812497 156.97383,10.1992193 156.633984,10.09375 C156.610547,9.97656191 156.598828,9.83593832 156.598828,9.671875 C156.598828,9.51953049 156.610547,9.36132895 156.633984,9.19726562 L162.803906,9.19726562 L162.803906,10.1289062 C161.995308,10.2343755 161.216019,10.761714 160.466016,11.7109375 C160.255077,11.9687513 160.108594,12.2148426 160.026562,12.4492188 L155.280469,25.2460938 C155.151562,25.3164066 154.975782,25.3515625 154.753125,25.3515625 C154.530468,25.3515625 154.348829,25.3164066 154.208203,25.2460938 L150.217969,14.5234375 L145.981641,25.2460938 C145.841015,25.3164066 145.650587,25.3515625 145.410352,25.3515625 C145.170116,25.3515625 144.991407,25.3164066 144.874219,25.2460938 L139.969922,12.7128906 C139.641795,11.892574 139.366407,11.3417983 139.14375,11.0605469 C138.733592,10.5449193 138.200394,10.2109383 137.544141,10.0585938 L137.579297,9.19726562 L144.821484,9.19726562 C144.833203,9.34961014 144.839062,9.49609305 144.839062,9.63671875 L144.839062,10.0410156 C143.655463,10.4160175 143.063672,10.9492153 143.063672,11.640625 L143.063672,11.640625 Z" id="Tomorrow"></path>
            </g>
        </g>
    </g>
</svg>